<?xml version="1.0" encoding="utf-8"?>
<!-- Generator: Adobe Illustrator 27.5.0, SVG Export Plug-In . SVG Version: 6.00 Build 0)  -->
<svg version="1.1" id="_x3C_Layer_x3E_" xmlns="http://www.w3.org/2000/svg" xmlns:xlink="http://www.w3.org/1999/xlink" x="0px"
	 y="0px" viewBox="0 0 2760 1840" style="enable-background:new 0 0 2760 1840;" xml:space="preserve">
<rect style="fill:#FFFFFF;" width="2760" height="1840"/>
<g>
	<g>
		<path style="fill:#EBF3FA;" d="M227.336,1534.525c0,0-253.39-563.819,105.047-768.516
			C690.821,561.313,717.28,752.817,958.79,496.888c241.51-255.929,546.247-292.062,766.339-208.38
			c220.092,83.681,89.467,275.832,329.8,313.737c240.334,37.905,607.871,169.971,486.78,446.114
			c-121.091,276.142,154.704,149.014,83.782,486.167H227.336z"/>
	</g>
	<g>
		<path style="fill:#D2E0FF;" d="M934.249,998.652c0,0,84.022-169.379-15.825-278.436c0,0-19.706-20.883-47.038-2.781
			c-27.333,18.102,16.143,54.438,35.05,86.509C925.343,836.014,954.053,929.321,934.249,998.652z"/>
	</g>
	<g>
		<path style="fill:#D2E0FF;" d="M958.79,974.264c0,0,109.007-107.63,61.245-217.495c0,0-9.593-21.192-35.305-14.525
			c-25.711,6.667-1.977,45.962,4.059,75.515C994.824,847.31,992.232,926.363,958.79,974.264z"/>
	</g>
	<g>
		<path style="fill:#D2E0FF;" d="M778.177,993.699c0,0,87.267-28.447,62.419-95.408c0,0-22.074-42.465-51.632-58.11
			c0,0-0.86,92.351-18.033,91.13c-17.174-1.222,8.376-102.837,8.376-102.837s-74.873-56.179-107.967-59.462
			c0,0,34.122,97.097,17.777,91.685c-16.346-5.411-56.544-104.799-56.544-104.799s-81.735-32.502-105.303,15.082
			c-23.567,47.584-6.544,77.076,5.404,82.706c11.947,5.63,92.81,20.543,88.642,30.603c-4.167,10.06-61.953,16.042-90.464,0.603
			c0,0,17.144,89.383,61.967,93.899c44.823,4.516,63.829-20.024,91.479-16.729c27.648,3.295,46.1,14.565,31.031,19.202
			c-15.068,4.638-60.182-9.412-85.878,4.937c-25.697,14.347-45.785,22.346-6.592,38.81c39.193,16.463,113.552,25.735,134.435-2.787
			C778.177,993.699,778.177,993.699,778.177,993.699z"/>
	</g>
	<g>
		<g>
			<path style="fill:#D2E0FF;" d="M562.918,794.36c0,0,205.873,114.757,215.259,199.339c0,0-9.764,38.342-20.882,28.522
				C757.295,1022.222,820.205,962.831,562.918,794.36z"/>
		</g>
	</g>
	<g>
		<g style="opacity:0.4;">
			
				<rect x="1820.485" y="669.189" transform="matrix(0.9956 -0.0941 0.0941 0.9956 -74.3195 190.491)" style="fill:#B6CBFB;" width="325.43" height="428.589"/>
		</g>
		<g>
			<polygon style="fill:#E2EAFD;" points="2489.29,1053.579 2165.354,1081.52 2125.033,654.832 2448.97,626.892 			"/>
		</g>
		<g>
			<g style="opacity:0.4;">
				
					<rect x="1862.995" y="871.13" transform="matrix(0.9956 -0.0941 0.0941 0.9956 -73.8441 182.6917)" style="fill:#B6CBFB;" width="75.424" height="6.813"/>
			</g>
			<g style="opacity:0.4;">
				
					<rect x="1949.786" y="862.929" transform="matrix(0.9956 -0.0941 0.0941 0.9956 -72.6884 190.8226)" style="fill:#B6CBFB;" width="75.423" height="6.813"/>
			</g>
		</g>
		<g>
			<g style="opacity:0.4;">
				
					<rect x="1864.449" y="849.237" transform="matrix(0.9956 -0.0941 0.0941 0.9956 -71.6917 184.5548)" style="fill:#B6CBFB;" width="114.206" height="6.813"/>
			</g>
			<g style="opacity:0.4;">
				
					<rect x="1995.338" y="836.868" transform="matrix(0.9956 -0.0941 0.0941 0.9956 -69.9538 196.834)" style="fill:#B6CBFB;" width="114.206" height="6.813"/>
			</g>
		</g>
		<g>
			<g style="opacity:0.4;">
				
					<rect x="1866.936" y="890.141" transform="matrix(0.9956 -0.0941 0.0941 0.9956 -75.5289 184.9702)" style="fill:#B6CBFB;" width="114.206" height="6.813"/>
			</g>
			<g style="opacity:0.4;">
				
					<rect x="1997.826" y="877.772" transform="matrix(0.9956 -0.0941 0.0941 0.9956 -73.7853 197.231)" style="fill:#B6CBFB;" width="114.207" height="6.813"/>
			</g>
		</g>
		<g>
			<g style="opacity:0.4;">
				
					<rect x="1862.712" y="789.405" transform="matrix(0.9956 -0.0941 0.0941 0.9956 -66.1575 182.3047)" style="fill:#B6CBFB;" width="75.423" height="6.813"/>
			</g>
			<g style="opacity:0.4;">
				
					<rect x="1949.502" y="781.204" transform="matrix(0.9956 -0.0941 0.0941 0.9956 -65.009 190.4605)" style="fill:#B6CBFB;" width="75.424" height="6.813"/>
			</g>
		</g>
		<g>
			<g style="opacity:0.4;">
				
					<rect x="1860.827" y="767.826" transform="matrix(0.9956 -0.0941 0.0941 0.9956 -64.0495 183.8548)" style="fill:#B6CBFB;" width="114.206" height="6.814"/>
			</g>
			<g style="opacity:0.4;">
				
					<rect x="1991.716" y="755.458" transform="matrix(0.9956 -0.0941 0.0941 0.9956 -62.3049 196.1118)" style="fill:#B6CBFB;" width="114.206" height="6.814"/>
			</g>
		</g>
		<g>
			<g style="opacity:0.4;">
				
					<rect x="1866.654" y="808.416" transform="matrix(0.9956 -0.0941 0.0941 0.9956 -67.8411 184.5796)" style="fill:#B6CBFB;" width="114.206" height="6.813"/>
			</g>
			<g style="opacity:0.4;">
				
					<rect x="1997.543" y="796.047" transform="matrix(0.9956 -0.0941 0.0941 0.9956 -66.1028 196.8585)" style="fill:#B6CBFB;" width="114.206" height="6.813"/>
			</g>
		</g>
		<g>
			<g>
				<g>
					<path style="fill:#F77D48;" d="M1995.06,992.15l-8.476,25.665h-10.895l27.844-81.597h12.592l27.845,81.597h-11.259
						l-8.717-25.665H1995.06z M2021.936,983.918l-8.111-23.487c-1.815-5.325-3.027-10.168-4.236-14.89h-0.243
						c-1.21,4.722-2.421,9.806-4.116,14.769l-7.99,23.608H2021.936z"/>
				</g>
				<g>
					<path style="fill:#F77D48;" d="M2009.701,1047.685c-36.055,0-65.387-29.333-65.387-65.387
						c0-36.055,29.332-65.389,65.387-65.389c1.227,0,2.221,0.996,2.221,2.221c0,1.228-0.994,2.222-2.221,2.222
						c-33.605,0-60.945,27.341-60.945,60.946c0,33.604,27.34,60.944,60.945,60.944c21.768,0,42.033-11.738,52.888-30.635
						c0.61-1.064,1.968-1.431,3.031-0.819c1.063,0.61,1.431,1.968,0.819,3.031
						C2054.796,1035.092,2033.055,1047.685,2009.701,1047.685z"/>
				</g>
			</g>
			<g>
				<g>
					<path style="fill:#FFB27D;" d="M2214.26,1109.882c0,0-14.895,4.064-17.245,4.991c-2.351,0.926-9.535,5.377-8.286,6.562
						c1.249,1.184,10.096,6.584,13.1,5.044c3.004-1.539,7.263,1.386,11.778-8.071L2214.26,1109.882z"/>
				</g>
				<g>
					<path style="fill:#6980E2;" d="M2323.273,1052.714c0,0-35.869,35.824-54.521,44.39c-13.32,6.117-60.515,12.778-60.515,12.778
						l3.036,12.427c0,0,31.151,5.887,53.743,6.08c35.315,0.301,47.413-21.309,47.413-21.309L2323.273,1052.714z"/>
				</g>
				<g>
					<path style="fill:#1C4B8E;" d="M2413.834,1507.365c0,0-1.499,24.182-6.178,24.528c-0.622,0.046-23.728,0.046-23.728,0.046
						l-29.496-0.171c0,0,0.193-7.107,8.815-8.609c8.621-1.503,23.053-7.563,28.275-18.957
						C2397.018,1492.214,2413.834,1507.365,2413.834,1507.365z"/>
				</g>
				<g>
					<path style="fill:#2B478B;" d="M2415.533,1509.045c0,0-8.965,2.998-15.967,2.998c-7.807,0-14.904-2.126-14.904-2.126
						s-1.688-16.325-10.979-52.296c-4.87-18.853-11.825-43.094-21.721-73.215c-27.359-83.25-35.68-131.949-36.438-136.562
						c-0.041-0.243-0.057-0.363-0.057-0.363l0.089-0.04l84.112-36.932c0,0-10.395,114.735,2.868,158.774
						c1.857,6.155,3.449,13.328,4.814,21.099C2415.728,1438.219,2415.533,1509.045,2415.533,1509.045z"/>
				</g>
				<g>
					<path style="fill:#233862;" d="M2373.684,1457.621c-4.87-18.853-11.825-43.094-21.721-73.215
						c-27.359-83.25-35.68-131.949-36.438-136.562c0.008-0.138,0.017-0.268,0.032-0.403l84.112-36.932
						c0,0-10.395,114.735,2.868,158.774C2404.395,1375.439,2373.684,1457.621,2373.684,1457.621z"/>
				</g>
				<g>
					<path style="fill:#1C4B8E;" d="M2348.138,1507.365c0,0-1.499,24.182-6.178,24.528c-0.622,0.046-23.728,0.046-23.728,0.046
						l-29.496-0.171c0,0,0.193-7.107,8.814-8.609c8.622-1.503,23.053-7.563,28.275-18.957
						C2331.321,1492.214,2348.138,1507.365,2348.138,1507.365z"/>
				</g>
				<g>
					<path style="fill:#2B478B;" d="M2300.449,1213.213c0,0-1.093,74.35,11.771,165.638c12.863,91.289,8.503,130.039,8.503,130.039
						s8.838,2.863,12.404,3.153c9.088,0.741,18.405-2.129,18.405-2.129s18.412-91.322,13.133-137.015
						c-5.278-45.691,25.214-156.789,25.214-156.789L2300.449,1213.213z"/>
				</g>
				<g>
					<path style="fill:#FFB27D;" d="M2360.091,1039.225l-16.418,10.767l-14.956-4.229c-2.734-3.899-3.457-11.418-3.498-17.931
						c-0.039-6.464,0.588-11.94,0.588-11.94l22.152-9.777l8.266-3.643c-0.024,0.129-0.644,6.787-0.732,7.76
						C2353.948,1027.493,2360.091,1039.225,2360.091,1039.225z"/>
				</g>
				<g>
					<path style="fill:#8C9DF4;" d="M2300.072,1233.883c20.436,19.732,97.78,16.413,102.545-5.327
						c4.76-21.739-5.197-185.064-40.106-195.325c-7.244-2.129-45.974,10.389-45.974,10.389s-6.076,15.898-10.063,36.138
						c-0.773,3.94-3.031,45.677-4.721,84.725c-0.788,18.261-1.455,35.938-1.795,48.882
						C2299.648,1225.486,2299.633,1233.45,2300.072,1233.883z"/>
				</g>
				<g>
					<path style="fill:#FCA56B;" d="M2353.836,1010.536c-4.494,7.599-20.262,14.248-28.617,17.295
						c-0.039-6.464,0.588-11.94,0.588-11.94l22.152-9.777C2352.855,1006.05,2355.838,1007.143,2353.836,1010.536z"/>
				</g>
				<g>
					<path style="fill:#FFB27D;" d="M2317.45,1014.542c0,0,35.692,11.134,42.284-11.2c6.591-22.333,15.638-35.938-6.872-43.991
						c-22.511-8.054-29.474-0.844-33.486,6.076C2315.362,972.346,2308.336,1011.07,2317.45,1014.542z"/>
				</g>
				<g>
					<path style="fill:#163560;" d="M2320.777,963.275c0,0,2.276,25.988,7.651,24.86c5.374-1.128,11.291-3.542,10.504,4.293
						c-0.786,7.834,5.227,21.264,12.977,21.232c16.622-0.069,34.683-42.721,30.132-50.809
						C2368.912,939.515,2301.802,934.806,2320.777,963.275z"/>
				</g>
				<g>
					<path style="fill:#6980E2;" d="M2326.028,1033.794c0.46-0.192,26.571-11.905,29.624-10.896
						c3.054,1.008,6.859,10.333,6.859,10.333l-45.975,10.395C2316.537,1043.625,2320.155,1036.268,2326.028,1033.794z"/>
				</g>
				<g>
					<path style="fill:#6980E2;" d="M2299.959,1213.363c80.646-57.468,73.94-134.152,73.94-134.152
						c-29.476,16.625-58.726,53.384-72.146,85.271C2300.966,1182.742,2300.299,1200.42,2299.959,1213.363z"/>
				</g>
				<g>
					<g>
						<path style="fill:#8C9DF4;" d="M2412.371,1370.758c-0.755,0.746-1.549,1.444-2.373,2.072
							c-2.624,2.037-5.547,3.494-8.602,4.382c-2.385,0.689-4.848,1.022-7.309,1.009c-6.607-0.039-13.19-2.59-18.204-7.656
							l-254.835-257.548c-9.963-10.068-10.434-26.429-0.541-36.568c5.107-5.235,11.867-7.83,18.617-7.789
							c6.607,0.029,13.195,2.585,18.209,7.651l255.236,257.953C2422.592,1344.394,2422.506,1360.73,2412.371,1370.758z"/>
					</g>
					<g>
						<path style="fill:#8C9DF4;" d="M2414.988,1330.071l-57.148-57.758c-1.301-1.314-1.29-3.455,0.025-4.756l0.849-0.84
							c1.314-1.301,3.454-1.29,4.755,0.025l57.149,57.757c1.301,1.315,1.289,3.454-0.025,4.756l-0.849,0.841
							C2418.429,1331.397,2416.289,1331.386,2414.988,1330.071z"/>
					</g>
					<g>
						
							<rect x="2396.588" y="1319.275" transform="matrix(0.7034 0.7108 -0.7108 0.7034 1652.3296 -1316.3153)" style="fill:#6980E2;" width="13.487" height="4.671"/>
					</g>
					<g>
						<path style="fill:#6980E2;" d="M2401.396,1377.212c-2.385,0.689-4.848,1.022-7.309,1.009
							c-6.607-0.039-13.19-2.59-18.204-7.656l-54.064-54.641l9.567-9.467L2401.396,1377.212z"/>
					</g>
					<g>
						<polygon style="fill:#F99746;" points="2088.004,1079.62 2335.418,1329.66 2345.431,1320.645 2373.824,1295.106 
							2124.99,1043.629 2097.654,1070.234 						"/>
					</g>
					<g>
						<polygon style="fill:#EF873A;" points="2088.004,1079.62 2335.418,1329.66 2345.431,1320.645 2097.654,1070.234 						"/>
					</g>
					<g>
						<path style="fill:#6980E2;" d="M2069.691,1017.463c-2.869-1.359-5.917,1.505-4.738,4.452l5.602,14.029l17.449,43.676
							l36.986-35.991l-40.908-19.353L2069.691,1017.463z"/>
					</g>
					<g>
						<path style="fill:#163560;" d="M2063.756,1018.919l6.799,17.025l13.527-11.668l-17.308-8.194
							C2064.947,1015.217,2063.006,1017.04,2063.756,1018.919z"/>
					</g>
				</g>
				<g>
					<path style="fill:#FFB27D;" d="M2220.362,1187.192c-5.687-1.313-9.506-5.612-10.3-6.362c0,0-2.426,0.165,0.397,5.338
						c0.236,0.434,0.76,1.545,1.155,2.332c0.162,0.321-0.063,0.694-0.421,0.723c-3.282,0.248-6.581-1.05-12.903,0.269
						c-0.873,0.182-1.127,2.271-1.094,3.161c0.058,1.507-0.051,3.197,1.699,5.509c1.02,1.343,3.862,2.789,10.19,5.336
						c2.411,0.972,9.306,0.239,15.769-1.98l5.164-2.39l-1.602-9.597l-1.297,0.272
						C2225.062,1190.234,2222.51,1187.72,2220.362,1187.192z"/>
				</g>
				<g>
					<path style="fill:#8C9DF4;" d="M2348.871,1043.625c0,0,72.463,13.797-21.319,118.733
						c-14.999,16.782-96.034,38.634-96.034,38.634s-8.219-6.992-4.075-12.655c0,0,55.795-40.517,68.071-46.958
						c5.521-2.897,21.434-64.668,30.436-79.544C2334.953,1046.957,2348.871,1043.625,2348.871,1043.625z"/>
				</g>
				<g>
					<path style="fill:#FFB27D;" d="M2205.121,1114.877c0,0-4.866,1.565-7.3,1.615c-2.433,0.05-9.808,1.806-11.226,2.809
						c-0.568,0.402-0.218,2.109,1.831,2.657c0.892,0.238,2.614,0.078,4.714-0.368c3.416-0.727,7.714,0.231,9.235,0.037
						C2206.164,1121.143,2205.121,1114.877,2205.121,1114.877z"/>
				</g>
			</g>
		</g>
	</g>
	<g>
		<g>
			<g>
				<path style="fill:#2B478B;" d="M1403.51,944.659c48.361,24.057,103.176,37.639,161.206,37.639
					c194.758,0,353.197-153.027,353.197-341.109c0-136.555-83.521-254.634-203.81-309.068l-8.21,16.218
					c114.079,51.508,193.318,163.412,193.318,292.85c0,178.131-150.062,323.049-334.496,323.049
					c-55.076,0-107.104-12.933-152.978-35.814L1403.51,944.659z"/>
			</g>
		</g>
		<g>
			<polygon style="fill:#2B478B;" points="1650.838,421.209 1665.563,429.711 1720.259,334.977 1705.117,327.193 			"/>
		</g>
		<g>
			<polygon style="fill:#2B478B;" points="1411.738,928.423 1423.772,940.75 1476.048,853.312 1460.932,844.884 			"/>
		</g>
		<g>
			
				<rect x="1554.561" y="973.592" transform="matrix(-1 -1.224647e-16 1.224647e-16 -1 3137.1748 2309.376)" style="fill:#2B478B;" width="28.054" height="362.192"/>
		</g>
		<g>
			
				<rect x="1489.701" y="1158.166" transform="matrix(-1 -1.224647e-16 1.224647e-16 -1 3137.1748 2336.6563)" style="fill:#2B478B;" width="157.772" height="20.324"/>
		</g>
		<g>
			<path style="fill:#9FB1FF;" d="M1800.294,732.489c-31.959,79.482-98.983,134.382-176.097,154.05h-0.009
				c-0.102,0.064-0.203,0.111-0.313,0.166c-2.333,1.125-5.034,1.724-7.69,1.743h-0.009c-13.961,3.089-28.215,5.033-42.627,5.762
				c-36.266,1.853-73.508-3.946-109.413-18.386c-28.067-11.285-53.065-26.942-74.53-45.873
				c-79.805-70.372-110.759-185.944-68.806-290.285c8.788-21.853,20.222-41.843,33.776-59.749
				c39.474-52.115,96.965-86.629,159.729-98.108c46.389-8.483,95.665-4.379,142.653,14.523
				c46.858,18.847,85.171,49.866,112.759,87.974c25.901,35.758,42.351,77.739,47.533,121.731
				C1822.156,647.595,1817.011,690.932,1800.294,732.489z"/>
		</g>
		<g>
			<path style="fill:#8C9DF4;" d="M1618.785,471.849c-2.748,4.813-9.608,5.256-14.938,3.725c-5.32-1.54-10.429-4.443-15.971-4.241
				c-6.722,0.258-12.678,5.431-14.946,11.766c-2.269,6.335-1.244,13.526,1.632,19.604c3.172,6.675,8.511,14.467,4.334,20.553
				c-4.002,5.836-13.443,3.955-18.699-0.774c-5.266-4.73-8.613-11.471-14.449-15.482c-7.33-5.044-17.252-4.72-25.661-1.798
				c-8.4,2.923-15.785,8.124-23.521,12.531c-2.647,1.504-5.569,2.97-8.585,2.563c-3.016-0.406-5.799-3.577-4.656-6.399
				c0.774-1.899,2.867-2.821,4.546-4.002c7.247-5.136,6.813-16.873,1.116-23.687c-5.708-6.815-14.855-9.637-23.633-10.992
				c-0.231,10.908-17.05,16.486-15.988,27.349c0.653,6.805,7.957,10.521,13.932,13.831c10.641,5.901,19.926,14.292,31.239,18.782
				c21.559,8.557,49.221,2.619,65.983,18.653c6.289,6.021,9.894,14.329,12.189,22.72c5.478,20.02,3.605,43.236-9.939,58.957
				c-15.63,18.138-44.711,31.627-46.195,31.424c-18.433-2.6-28.631-8.067-35.002-6.325c-23.992,6.557-15.998,46.666-21.208,63.678
				c-14.375,46.897-37.61,69.856-40.441,68.528c-32.586-15.224-53.194-52.733-48.584-88.397
				c2.416-18.673,10.954-36.35,11.628-55.168c0.59-16.478-4.914-32.53-6.796-48.906c-3.458-30.107,5.947-61.474,25.385-84.72
				c4.195-5.016,8.916-9.773,11.571-15.749c2.674-5.975,2.785-13.684-1.733-18.414c-5.366-5.624-14.605-4.775-21.918-2.111
				c-7.312,2.656-14.503,6.74-22.268,6.243c-4.776-0.314-9.137-2.453-12.632-5.671c39.474-52.115,96.965-86.629,159.729-98.108
				c10.677,8.446,7.091,28.298,15.149,38.635c12.448,15.97,40.082,7.875,55.73,20.729c2.996,2.452,5.402,5.597,8.574,7.818
				c5.247,3.67,11.969,4.463,17.667,7.377C1617.125,459.281,1621.947,466.289,1618.785,471.849z"/>
		</g>
		<g>
			<path style="fill:#7C9AF2;" d="M1359.726,644.804c0.658,2.87,1.317,5.74,1.976,8.61c0.452,1.977,0.908,4.016,0.572,6.016
				c-0.707,4.212-5.402,7.284-9.545,6.246c-4.143-1.037-6.834-5.961-5.472-10.009c0.843-2.503,2.979-4.775,2.507-7.373
				c-0.988-5.429-12.033-11.139-2.567-13.868C1354.221,632.401,1358.502,639.05,1359.726,644.804z"/>
		</g>
		<g>
			<path style="fill:#FFFFFF;" d="M1573.549,894.21c-36.266,1.853-73.508-3.946-109.413-18.386
				c-28.067-11.285-53.065-26.942-74.53-45.873c8.169-1.576,16.578-2.138,23.799,1.633c2.213,1.152,4.232,2.692,5.929,4.527
				c1.171,1.271,2.222,2.701,3.651,3.669c1.512,1.016,3.328,1.448,5.089,1.909c18.894,4.942,36.32,15.307,49.691,29.534
				c7.09-1.318,11.895-9.202,19.095-9.599c4.583-0.25,8.649,2.637,12.809,4.573c8.483,3.965,18.155,4.131,27.505,4.638
				c9.341,0.517,19.142,1.622,26.786,7.026C1568.293,880.933,1573.419,887.949,1573.549,894.21z"/>
		</g>
		<g>
			<path style="fill:#8C9DF4;" d="M1769.718,484.306c25.901,35.758,42.351,77.739,47.533,121.731
				c-3.458,2.545-7.008,4.961-10.447,7.33c-5.016,3.449-10.078,7.174-13.241,12.375c-2.738,4.526-3.863,9.875-6.547,14.439
				c-8.372,14.246-29.772,17.785-35.905,33.138c-5.56,13.915,4.583,28.75,6.925,43.54c2.177,13.748-3.006,28.438-13.332,37.76
				c-5.2,4.702-11.509,8.04-16.811,12.623c-25.421,21.981-22.129,66.379-49.155,86.351c-11.295,8.355-26.14,10.816-37.362,19.263
				c-5.854,4.417-10.631,10.392-17.178,13.684h-0.009c-0.102,0.064-0.203,0.111-0.313,0.166c-2.333,1.125-5.034,1.724-7.69,1.743
				h-0.009c-5.007,0.027-9.839-2.029-11.637-6.557c-2.342-5.91,1.577-12.245,4.758-17.74c9.627-16.616,13.675-35.795,17.298-54.651
				c2.914-15.177,5.514-31.498-0.839-45.577c-2.342-5.201-5.818-9.83-8.151-15.03c-3.66-8.188-4.278-17.851-0.931-26.177
				c3.356-8.317,10.843-15.04,19.657-16.728c3.413-0.653,7.036-0.607,10.135-2.185c10.05-5.1,6.251-20.646,11.637-30.548
				c5.218-9.563,18.054-11.858,28.869-10.566c10.816,1.299,21.595,5.061,32.355,3.337c10.751-1.733,21.31-12.217,17.713-22.508
				c-4.712-13.481-28.169-14.282-30.05-28.436c-0.618-4.676,1.567-9.637-0.166-14.016c-1.402-3.522-5.008-5.708-6.777-9.055
				c-2.074-3.919-1.355-8.852-3.411-12.78c-3.468-6.63-13.868-8.768-14.717-16.2c-0.932-8.207,10.051-11.425,16.644-16.414
				c8.869-6.731,10.115-21.4,2.508-29.533c-5.551-5.919-15.602-11.102-13.002-18.792c2.085-6.178,10.521-6.619,16.994-5.9
				c11.665,1.291,23.338,2.582,35.002,3.881c13.343,1.476,17.768-1.096,26.657-9.69
				C1767.764,485.578,1768.76,484.831,1769.718,484.306z"/>
		</g>
	</g>
	<g>
		<g>
			<g>
				<path style="fill:#D2E0FF;" d="M1496.593,1438.871h303.129v-123.311h-304.176c-25.498,0-46.169,20.67-46.169,46.169v29.925
					C1449.377,1417.731,1470.517,1438.871,1496.593,1438.871z"/>
			</g>
			<g>
				<path style="fill:#A4C0F4;" d="M1188.081,1366.294v18.552c0,9.913,2.336,19.194,6.424,27.174
					c8.208,16.057,23.474,26.849,40.951,26.849h573.647c3.796,0,6.871-3.507,6.871-7.83v-2.777c0-4.322-3.075-7.83-6.871-7.83
					h-349.69c-1.871-2.601-3.517-5.414-4.909-8.411c-3.273-7.036-5.126-15.057-5.126-23.575v-23.581
					c0-4.337,0.492-8.546,1.417-12.55c1.566-6.788,4.368-13.002,8.108-18.31h350.2c3.796,0,6.871-3.508,6.871-7.838v-2.77
					c0-4.329-3.075-7.837-6.871-7.837h-576.537c-20.316,0-37.452,15.532-42.771,36.754
					C1188.678,1356.757,1188.081,1361.447,1188.081,1366.294z"/>
			</g>
		</g>
		<g>
			<polygon style="fill:#A4C0F4;" points="1799.722,1377.216 1757.247,1379.288 1799.722,1380.537 			"/>
		</g>
		<g>
			<polygon style="fill:#A4C0F4;" points="1799.722,1396.563 1698.67,1398.637 1799.722,1399.885 			"/>
		</g>
		<g>
			<g>
				<g>
					<path style="fill:#B6CBFB;" d="M1927.264,1534.525H1629.64v-95.914h300.342c23.124,0,41.872,18.747,41.872,41.872v9.453
						C1971.854,1514.562,1951.89,1534.525,1927.264,1534.525z"/>
				</g>
				<g>
					<path style="fill:#D2E0FF;" d="M1642.688,1534.525h-339.432v-95.914h340.396c23.513,0,42.573,19.061,42.573,42.572v9.804
						C1686.226,1515.033,1666.732,1534.525,1642.688,1534.525z"/>
				</g>
				<g>
					<path style="fill:#B6CBFB;" d="M1708.539,1534.525h-416.583c-3.57,0-6.466-2.895-6.466-6.466v-1.413
						c0-3.571,2.896-6.466,6.466-6.466h416.583c3.57,0,6.465,2.895,6.465,6.466v1.413
						C1715.004,1531.631,1712.109,1534.525,1708.539,1534.525z"/>
				</g>
				<g>
					<path style="fill:#B6CBFB;" d="M1708.539,1452.957h-416.583c-3.57,0-6.466-2.895-6.466-6.467v-1.413
						c0-3.571,2.896-6.466,6.466-6.466h416.583c3.57,0,6.465,2.895,6.465,6.466v1.413
						C1715.004,1450.063,1712.109,1452.957,1708.539,1452.957z"/>
				</g>
			</g>
			<g>
				<polygon style="fill:#B6CBFB;" points="1303.256,1486.569 1349.686,1488.181 1303.256,1489.152 				"/>
			</g>
			<g>
				<polygon style="fill:#B6CBFB;" points="1303.256,1464.495 1413.717,1466.108 1303.256,1467.078 				"/>
			</g>
		</g>
		<g>
			<g>
				<path style="fill:#699DEE;" d="M1546.791,1465.786c0,0-4.733,4.122-6.301,10.896c-0.277,1.185-0.454,2.454-0.491,3.79
					c-0.262,9,0,29.369,0,29.369l-13.976-10.185l-13.939,10.185v-27.607c0-5.22,1.196-10.298,3.417-13.623
					c1.076-1.611,2.382-2.824,3.861-2.824H1546.791z"/>
			</g>
			<g>
				<path style="fill:#568CDB;" d="M1546.791,1465.786c0,0-4.733,4.122-6.301,10.896l-28.008,0.403c0,0,1.1-9.699,6.88-11.299
					H1546.791z"/>
			</g>
		</g>
		<g>
			<g>
				<g>
					<path style="fill:#D2E0FF;" d="M1549.996,1315.819h324.974v-140.918h-326.136c-28.289,0-51.223,22.934-51.223,51.223v37.311
						C1497.611,1292.366,1521.065,1315.819,1549.996,1315.819z"/>
				</g>
				<g>
					<path style="fill:#B6CBFB;" d="M1497.426,1229.579v30.327c0.08,12.953,6.285,24.191,15.404,30.2
						c4.489,2.948,9.677,4.635,15.189,4.635h356.882c4.183,0,7.573,3.918,7.573,8.751v3.578c0,4.833-3.391,8.751-7.573,8.751
						h-616.52c-17.691,0-33.322-10.161-42.766-25.715c-5.955-9.8-9.45-21.731-9.45-34.622v-23.929c0-8.829,1.749-17.19,4.87-24.638
						c7.929-18.947,24.719-32.014,44.157-32.014h619.708c4.183,0,7.573,3.911,7.573,8.744v3.577c0,4.833-3.391,8.752-7.573,8.752
						h-357.974c-8.554,0-16.299,4.209-21.708,10.94C1500.431,1212.885,1497.476,1220.827,1497.426,1229.579z"/>
				</g>
			</g>
			<g>
				<polygon style="fill:#B6CBFB;" points="1874.97,1245.36 1829.221,1247.729 1874.97,1249.156 				"/>
			</g>
			<g>
				<polygon style="fill:#B6CBFB;" points="1874.97,1212.93 1766.128,1215.299 1874.97,1216.726 				"/>
			</g>
			<g>
				<g>
					<path style="fill:#F99746;" d="M1529.438,1214.828c0,0,7.183,4.469,9.562,11.813c0.42,1.283,0.689,2.66,0.745,4.108
						c0.396,9.759,0,31.845,0,31.845l21.208-11.042l21.152,11.042v-29.934c0-5.66-1.815-11.167-5.185-14.772
						c-1.634-1.746-3.615-3.061-5.86-3.061H1529.438z"/>
				</g>
				<g>
					<path style="fill:#ED7D2B;" d="M1529.438,1214.828c0,0,7.183,4.469,9.562,11.813l42.5,0.437c0,0-1.669-10.517-10.439-12.25
						H1529.438z"/>
				</g>
			</g>
		</g>
	</g>
	<g>
		<g>
			<path style="fill:#FFB27D;" d="M584.338,1058.007c0,0,10.373-14.474,18.334-19.78c7.96-5.308,29.188-10.855,28.947-6.995
				c-0.241,3.859-12.555,19.343-12.555,24.019s-17.578,4.929-21.047,7.18c-3.468,2.252-4.111,4.343-4.111,4.343L584.338,1058.007z"
				/>
		</g>
		<g>
			<path style="fill:#F99746;" d="M598.019,1070.928c0,0-30.684,62.44-59.787,63.743c-1.641,0.077-3.357-0.145-5.152-0.656
				c0,0,0,0-0.01-0.01c-0.02,0-0.049,0-0.066-0.02c-0.455-0.116-0.918-0.271-1.381-0.424l-0.068-0.03
				c-4.438-1.582-9.282-4.688-14.299-8.953c-1.515-1.284-3.05-2.673-4.593-4.149v-0.01c-3.561-3.426-7.17-7.343-10.75-11.618
				c-9.602-11.463-18.99-25.513-26.574-39.465c-0.164-0.29-0.318-0.579-0.474-0.869c-10.786-20.012-10.574-35.171-6.946-45.871
				c4.603-13.606,14.705-20.003,14.705-20.003c0.01,0.009,0.02,0.009,0.029,0.009c0.27,0.059,2.325,0.531,5.423,1.631
				c8.047,2.865,23.09,9.93,31.602,24.721c1.544,2.684,2.875,5.627,3.907,8.839c9.07,28.233,15.41,50.717,20.225,49.26
				c7.662-2.316,39.013-34.505,39.013-34.505s3.792,1.187,8.732,5.75C597.219,1063.527,598.019,1070.928,598.019,1070.928z"/>
		</g>
		<g>
			<path style="fill:#E8783A;" d="M501.91,1108.797v0.008c10.267,12.259,20.778,21.575,29.647,24.729l0.068,0.022l1.376,0.434
				l0.075,0.023c0,0,0,0-0.007-0.008c-0.319-0.213-9.812-5.135-11.301-14.272c-1.523-9.337,8.358-16.976-16.47-31.418
				C490.833,1079.899,501.91,1108.797,501.91,1108.797z"/>
		</g>
		<g>
			<path style="fill:#24406D;" d="M524.637,1537.062h-68.225c-4.888-3.315,1.319-35.724,1.319-35.724s18.62-7.065,21.836,7.303
				c3.226,14.356,23.716,18.922,34.56,20.673C521.549,1530.521,523.894,1534.598,524.637,1537.062z"/>
		</g>
		<g>
			<path style="fill:#8C9DF4;" d="M420.6,1201.136c0,0,2.15,39.8,4.841,85.915c1.938,33.067,4.143,69.388,6.034,96.587
				c0.251,3.61,0.502,7.061,0.737,10.321c0.068,1.011,0.145,2.014,0.221,3.017c4.887,60.989,21.219,114.424,21.219,114.424
				c19.182,4.043,27.847-3.352,27.847-3.352s13.216-154.894,18.11-217.363c3.602-45.987,6.672-112.941,6.672-112.941L420.6,1201.136
				z"/>
		</g>
		<g>
			<path style="fill:#7185DB;" d="M425.44,1287.051c1.938,33.067,4.143,69.388,6.034,96.587
				c12.54-29.578,38.159-144.868,38.159-144.868L425.44,1287.051z"/>
		</g>
		<g>
			<path style="fill:#24406D;" d="M423.454,1537.062h-68.223c-4.888-3.315,1.318-35.724,1.318-35.724s18.62-7.065,21.836,7.303
				c3.226,14.356,23.716,18.922,34.561,20.673C420.367,1530.521,422.712,1534.598,423.454,1537.062z"/>
		</g>
		<g>
			<path style="fill:#8C9DF4;" d="M487.748,1193.219c0,0-48.719,121.271-64.294,167.24
				c-11.094,32.744-42.382,147.615-42.382,147.615s-13.605,4.141-25.04-3.863c0,0-11.64-117.359,11.873-150.451
				c12.475-17.556,3.1-182.503,53.679-183.915C472.163,1168.433,487.748,1193.219,487.748,1193.219z"/>
		</g>
		<g>
			<path style="fill:#F99746;" d="M513.396,1172.795c-1.062,13.904-3.995,23.853-10.431,23.853c0,0-28.629,10.073-62.836,10.344
				c-6.686,0.049-16.152-1.254-24.007-2.566c-8.019-1.36-14.368-2.73-14.368-2.73c-6.88-1.582-13.557-3.937-13.412-14.378
				c0.029-2.084-0.049-8.201-0.154-17.002c-0.059-4.68-0.126-10.111-0.203-16.104c-0.067-5.914-0.135-12.369-0.202-19.173
				c-0.155-15.97-0.261-33.82-0.213-50.996v-0.01c0.049-17.002,0.261-33.348,0.753-46.548c0.617-16.307,1.669-27.818,3.396-29.835
				c0.01-0.01,0.01-0.01,0.01-0.01c2.306-2.644,6.523-4.901,12.013-6.687c19.482-6.35,55.078-6.86,78.883,1.641
				c0.01,0.009,0.02,0.009,0.029,0.009c1.727,0.627,3.396,1.293,4.998,2.007c4.322,1.94,8.105,4.236,11.135,6.919
				c2.144,1.881,8.868,12.91,11.223,26.227c0.482,2.711,0.791,5.529,0.83,8.375c0.192,12.525,1.119,45.178,1.824,74.3
				C513.279,1145.758,513.723,1168.414,513.396,1172.795z"/>
		</g>
		<g>
			<path style="fill:#FFB27D;" d="M430.313,999.275c8.998,9.751,39.223,8.307,38.326-0.206c-0.121-1.048-0.319-7.279-0.418-8.245
				c-0.076-0.775-0.152-1.535-0.213-2.249c-0.206-2.098-0.373-3.952-0.51-5.556c-0.402-4.667-0.531-7.197-0.531-7.197
				s-0.016,0-0.031,0c-0.865-0.243-20.299-5.762-29.966-8.049c-3.245-0.767-5.396-1.17-5.357-0.889
				C434.576,988.598,427.364,996.076,430.313,999.275z"/>
		</g>
		<g>
			<path style="fill:#ED975D;" d="M435.944,974.181c0,0,8.116,8.245,31.554,8.839c-0.402-4.667-0.531-7.197-0.531-7.197
				s-0.016,0-0.031,0c-0.865-0.243-20.299-5.762-29.966-8.049C435.268,968.474,437.524,973.011,435.944,974.181z"/>
		</g>
		<g>
			<path style="fill:#FFB27D;" d="M472.907,974.667c0,0-5.934,2.13-13.499,3.148c-11.064,1.493-25.612,0.613-30.183-12.773
				c-7.698-22.531-17.531-36.04,5.122-45.24c12.126-4.927,19.885-5.188,25.154-3.308c4.578,1.622,7.276,4.863,9.32,8.069
				C473.222,931.459,482.071,970.723,472.907,974.667z"/>
		</g>
		<g>
			<path style="fill:#233862;" d="M467.117,907.125c8.093,5.313,5.45,17.769-4.085,19.446c-5.715,1.005-10.508,1.205-13.28,2.439
				c-5.634,2.503-10.476,5.158-9.146,13.897c0.452,2.974,1.901,6.593-5.75,4.795c-1.253-0.293-2.157-0.206-2.778,0.167
				c-3.174,1.883,0.882,11.01,2.105,12.985c0,0,1.761,6.538-2.147,9.721c-0.473,0.381-8.147,3.734-26.642-24.569
				c-2.907-4.442-5.683-14.451-1.192-24.087c4.483-9.637,16.992-21.825,40.552-21.825
				C450.889,900.094,460.109,902.523,467.117,907.125z"/>
		</g>
		<g>
			<path style="fill:#FFFFFF;" d="M473.079,960.121c0,0,0.475,2.917-6.307,5.244c0,0-5.694,1.955-6.733-1.036
				C460.039,964.329,464.563,960.023,473.079,960.121z"/>
		</g>
		<g>
			<path style="fill:#E8783A;" d="M387.989,1154.214c3.442,15.997,9.036,21.538,12.182,15.571
				c11.02-20.899,10.892-29.662,6.11-44.481c-4.78-14.819,12.001-37.999,0-47.88c-11.733-9.658-18.422,5.914-18.711,6.604
				C387.502,1108.522,387.753,1134.394,387.989,1154.214z"/>
		</g>
		<g>
			<path style="fill:#FFB27D;" d="M388.516,1152.156c0,0,8.108,13.261,13.427,12.794c5.317-0.468,12.49-2.452,16.634,1.501
				c4.144,3.952,10.818,14.149,8.952,16.865c-1.866,2.715-9.367,0.308-14.757-2.665c-5.39-2.974-13.877,1.464-18.4-1.913
				s-15.357-16.787-15.357-16.787L388.516,1152.156z"/>
		</g>
		<g>
			<path style="fill:#F99746;" d="M401.841,1071.729c-3.165,1.477-8.791,6.436-14.272,12.303v0.01
				c-7.169,7.681-14.068,16.906-14.869,21.885c-0.608,3.773,7.381,17.224,15.082,29.111c6.947,10.711,13.653,20.158,13.653,20.158
				c-2.046,5.229-8.443,11.184-13.248,15.119c-3.232,2.654-5.751,4.391-5.751,4.391c-32.933-26.227-45.294-42.418-49.27-61.61
				c-5.538-26.68,19.424-61.86,38.481-84.074c10.807-12.611,19.713-21.045,20.07-21.372c0.01-0.01,0.01-0.01,0.01-0.01
				c9.418,4.121,13.75,22.762,14.444,38.905C406.724,1059.146,405.054,1070.224,401.841,1071.729z"/>
		</g>
		<g>
			<path style="fill:#FFB27D;" d="M401.942,1164.95c0,0,7.093-3.104,9.373-4.434c2.28-1.33,1.773,0.823,1.076,1.899
				c-0.696,1.077-2.597,3.483-5.383,3.737C404.222,1166.406,401.942,1164.95,401.942,1164.95z"/>
		</g>
		<g>
			<g>
				<path style="fill:#F77D48;" d="M1191.83,1236.935c-7.351,94.72-54.618,176.758-123.998,230.962
					c-1.479,1.156-2.932,2.289-4.433,3.394c-54.183,40.864-121.298,64.983-193.188,65.394c-3.643,0.029-7.282-0.014-10.939-0.13
					c-5.476-0.138-10.965-0.42-16.49-0.849c-109.892-8.528-202.744-70.797-254.817-159.011c-1.801-3.039-3.549-6.122-5.249-9.225
					c-29.208-53.397-43.765-115.603-38.704-180.813c3.701-47.681,17.502-92.135,39.147-131.451c1.757-3.194,3.584-6.358,5.432-9.475
					c27.687-46.466,66.565-85.235,112.624-112.81c1.709-1.041,3.418-2.059,5.172-3.048c54.67-31.387,119.06-47.234,186.676-41.986
					c12.574,0.976,24.928,2.653,37.037,5.007c3.399,0.647,6.771,1.364,10.112,2.126c74.781,16.97,139.031,59.406,184.008,117.12
					c2.461,3.161,4.875,6.344,7.188,9.567c27.022,37.414,46.19,80.641,55.324,127.186c0.674,3.359,1.296,6.762,1.848,10.158
					C1192.71,1184.242,1193.896,1210.332,1191.83,1236.935z"/>
			</g>
			<g>
				<g>
					<path style="fill:#D8653D;" d="M822.746,1149.563c-2.278-2.429-4.584-4.836-6.943-7.176
						c-53.688-53.789-126.04-89.402-207.542-95.728c-6.597-0.513-13.138-0.828-19.671-0.929c-1.848,3.116-3.675,6.28-5.432,9.475
						c8.049,0.026,16.195,0.347,24.363,0.98c78.667,6.105,148.541,40.306,200.572,92c2.358,2.34,4.667,4.699,6.946,7.129
						c60.056,63.436,94.136,151.02,86.858,244.787c-3.863,49.777-18.977,96.021-42.626,136.452c3.657,0.116,7.296,0.159,10.939,0.13
						c22.817-40.52,37.383-86.494,41.214-135.844C918.887,1304.692,884.123,1214.826,822.746,1149.563z"/>
				</g>
			</g>
			<g>
				<g>
					<path style="fill:#D8653D;" d="M1186.731,1148.893c-69.322-15.061-129.705-52.381-173.982-103.643
						c-2.353-2.722-4.678-5.49-6.952-8.302c-32.739-40.614-55.709-89.192-65.586-141.929c-3.342-0.762-6.713-1.478-10.112-2.126
						c9.579,54.702,32.808,105.192,66.256,147.49c2.202,2.807,4.479,5.571,6.783,8.29c46.584,55.202,111.145,95.194,185.441,110.377
						C1188.027,1155.654,1187.405,1152.252,1186.731,1148.893z"/>
				</g>
			</g>
			<g>
				<g>
					<path style="fill:#D8653D;" d="M1058.61,1471.752c-9.031-93.468-33.52-179.71-72.782-256.328
						c-31.4-61.283-72.283-116.602-121.51-164.416c-83.897-81.496-164.037-113.327-164.836-113.64l3.468-8.903
						c0.815,0.317,82.45,32.68,167.709,115.379c50.044,48.545,91.608,104.719,123.54,166.961
						c39.895,77.764,64.763,165.248,73.922,260.029L1058.61,1471.752z"/>
				</g>
			</g>
			<g>
				<g>
					<path style="fill:#D8653D;" d="M1131.407,1021.706c-32.777,1.218-72.52,7.598-118.658,23.544
						c-3.177,1.096-6.38,2.236-9.611,3.424c-27.575,10.151-57.329,23.68-89.193,41.549c-2.805,1.556-5.637,3.157-8.472,4.806
						c-26.212,15.12-53.799,33.131-82.727,54.534c-2.541,1.863-5.135,3.795-7.706,5.752c-16.643,12.533-33.708,26.184-51.179,41.05
						c-97.426,82.769-165.773,167.53-175.896,180.33c-1.801-3.039-3.549-6.122-5.249-9.225
						c16.233-20.232,82.536-100.241,174.604-178.515c16.982-14.424,33.899-28.038,50.773-40.77c2.572-1.956,5.142-3.89,7.709-5.799
						c27.967-20.735,55.701-39.117,83.054-55.036c2.814-1.674,5.622-3.278,8.429-4.881c11.303-6.382,22.499-12.343,33.639-17.875
						c18.691-9.284,37.191-17.359,55.431-24.211c3.159-1.192,6.291-2.339,9.442-3.436c40.825-14.467,80.406-22.776,118.422-24.809
						C1126.68,1015.301,1129.094,1018.483,1131.407,1021.706z"/>
				</g>
			</g>
		</g>
		<g>
			<path style="fill:#E8783A;" d="M452.239,1006.866c-12.665,0.003-28.495-5.674-28.321-9.871l2.587-9.505
				c0,0,10.498,2.704,19.567,5.741c2.975,0.997,5.213,3.51,5.83,6.586C452.669,1003.631,452.749,1006.866,452.239,1006.866z"/>
		</g>
		<g>
			<path style="fill:#E8783A;" d="M473.959,1000.006c0,0-9.578,7.825-21.72,6.86c1.329-2.776,1.971-8.774,4.462-11.579
				c5.194-5.845,12.906-7.797,12.906-7.797L473.959,1000.006z"/>
		</g>
		<g>
			<path style="fill:#E58339;" d="M457.256,1016.737c0.57-0.038,1.139-0.135,1.708-0.279
				C458.405,1016.786,457.835,1016.863,457.256,1016.737z"/>
		</g>
		<g>
			<path style="fill:#8C9DF4;" d="M519.678,1028.953l-9.669,8.801l-34.67,31.582l-8.674,7.902l-60.492-30.694l-17.851-9.061
				l-16.674-8.463c10.807-12.611,19.713-21.045,20.07-21.372c0.01-0.01,0.01-0.01,0.01-0.01c2.306-2.644,6.523-4.901,12.013-6.687
				l56.478,28.658l7.7-7.015l19.733-17.987l0.425-0.376C496.123,1007.098,511.166,1014.162,519.678,1028.953z"/>
		</g>
		<g>
			<path style="fill:#2B478B;" d="M468.998,1200.451l-0.68-0.685c5.324-5.277,8.412-28.129-0.046-39.381
				c-8.784-11.685-1.586-27.507,7.245-37.506c5.138-5.815,0.626-10.61-5.618-17.246c-3.775-4.011-8.054-8.559-10.959-14.246
				c-5.23-10.236-2.246-18.285,0.639-26.069c1.415-3.814,2.876-7.761,3.382-11.952c1.521-12.595-8.176-36.348-8.273-36.587
				l0.893-0.366c0.404,0.983,9.889,24.226,8.339,37.067c-0.52,4.308-2.002,8.306-3.435,12.173
				c-2.942,7.938-5.722,15.436-0.686,25.296c2.843,5.565,7.072,10.059,10.803,14.023c6.347,6.744,11.359,12.071,5.64,18.547
				c-8.592,9.726-15.632,25.066-7.197,36.286C477.754,1171.394,474.51,1194.988,468.998,1200.451z"/>
		</g>
		<g>
			<path style="fill:#2B478B;" d="M453.686,1014.425c0,0-0.885,5.388,0,6.111c0.884,0.724,3.457,0.804,3.538-0.724
				c0.08-1.527-0.744-5.531-1.388-5.773C455.193,1013.799,453.794,1013.694,453.686,1014.425z"/>
		</g>
	</g>
	<g>
		<g>
			<path style="fill:#9FB1FF;" d="M1150.569,865.965l-3.723-1.227c-3.973-1.31-6.14-5.608-4.83-9.582l10.296-31.23
				c1.311-3.973,5.609-6.14,9.583-4.83l5.33,1.757c0.779,0.258,1.201,1.097,0.945,1.875c-0.257,0.779-1.097,1.202-1.875,0.944
				l-5.331-1.757c-2.419-0.797-5.034,0.521-5.831,2.939l-10.297,31.232c-0.797,2.419,0.521,5.034,2.939,5.831l3.723,1.228
				c2.418,0.798,5.034-0.522,5.831-2.94l6.836-20.73c0.257-0.779,1.096-1.202,1.875-0.945c0.777,0.256,1.202,1.096,0.945,1.875
				l-6.836,20.733C1158.841,865.107,1154.543,867.274,1150.569,865.965z"/>
		</g>
	</g>
	<g>
		<g>
			<path style="fill:#9FB1FF;" d="M1141.656,898.409l-6.673-2.2c-6.194-2.043-9.455-9.104-7.267-15.742l15.48-46.952
				c0.257-0.779,1.096-1.202,1.875-0.945c0.779,0.257,1.201,1.097,0.945,1.875l-15.479,46.952
				c-1.677,5.083,0.735,10.463,5.375,11.992l6.673,2.2c4.64,1.529,9.777-1.361,11.453-6.443l17.633-53.481
				c1.675-5.083-0.736-10.462-5.376-11.993c-0.779-0.256-1.202-1.096-0.945-1.874c0.257-0.778,1.097-1.202,1.875-0.945
				c6.195,2.043,9.454,9.104,7.267,15.741l-17.633,53.482C1154.672,896.713,1147.851,900.451,1141.656,898.409z"/>
		</g>
	</g>
	<g>
		<g>
			<path style="fill:#9FB1FF;" d="M1033.068,611.815l-1.734,3.515c-1.851,3.752-6.408,5.299-10.161,3.449l-29.492-14.545
				c-3.752-1.851-5.3-6.409-3.448-10.161l2.482-5.034c0.363-0.735,1.254-1.038,1.989-0.675c0.735,0.362,1.037,1.253,0.674,1.988
				l-2.483,5.034c-1.125,2.283-0.184,5.058,2.1,6.185l29.492,14.544c2.284,1.127,5.059,0.185,6.186-2.099l1.732-3.515
				c1.127-2.284,0.186-5.059-2.099-6.185l-19.578-9.655c-0.735-0.362-1.038-1.253-0.675-1.989c0.362-0.734,1.253-1.036,1.988-0.674
				l19.578,9.655C1033.371,603.504,1034.918,608.062,1033.068,611.815z"/>
		</g>
	</g>
	<g>
		<g>
			<path style="fill:#9FB1FF;" d="M1063.955,625.158l-3.107,6.302c-2.886,5.85-10.332,8.095-16.6,5.003l-44.34-21.867
				c-0.736-0.362-1.038-1.253-0.675-1.989c0.362-0.734,1.252-1.036,1.988-0.674l44.34,21.866c4.799,2.368,10.462,0.728,12.623-3.652
				l3.107-6.302c2.161-4.382,0.015-9.872-4.785-12.239l-50.506-24.908c-4.8-2.366-10.462-0.728-12.624,3.654
				c-0.361,0.735-1.252,1.038-1.987,0.675c-0.735-0.363-1.038-1.253-0.676-1.988c2.886-5.851,10.332-8.095,16.601-5.003
				l50.506,24.907C1064.088,612.033,1066.841,619.308,1063.955,625.158z"/>
		</g>
	</g>
	<g>
		<g>
			<g>
				<path style="fill:#F99746;" d="M2117.647,1336.152l-3.189,2.279c-3.403,2.432-8.152,1.641-10.584-1.764l-19.117-26.756
					c-2.433-3.404-1.642-8.152,1.763-10.585l4.566-3.263c0.668-0.478,1.596-0.322,2.072,0.345s0.322,1.594-0.345,2.071l-4.567,3.263
					c-2.072,1.48-2.553,4.37-1.073,6.442l19.118,26.756c1.479,2.072,4.369,2.554,6.441,1.073l3.188-2.278
					c2.071-1.48,2.554-4.37,1.073-6.442l-12.691-17.762c-0.476-0.667-0.322-1.594,0.346-2.071c0.668-0.477,1.595-0.322,2.071,0.345
					l12.69,17.762C2121.843,1328.972,2121.052,1333.72,2117.647,1336.152z"/>
			</g>
		</g>
		<g>
			<g>
				<path style="fill:#F99746;" d="M2138.562,1362.51l-5.717,4.084c-5.307,3.792-12.931,2.251-16.994-3.436l-28.741-40.227
					c-0.476-0.666-0.321-1.594,0.346-2.07c0.667-0.478,1.595-0.322,2.07,0.345l28.742,40.226c3.11,4.354,8.876,5.586,12.852,2.746
					l5.716-4.084c3.976-2.84,4.679-8.693,1.567-13.049l-32.738-45.819c-3.111-4.354-8.876-5.585-12.851-2.745
					c-0.668,0.476-1.595,0.322-2.072-0.346c-0.476-0.667-0.321-1.594,0.345-2.07c5.309-3.792,12.932-2.252,16.995,3.436
					l32.737,45.819C2144.881,1351.006,2143.869,1358.718,2138.562,1362.51z"/>
			</g>
		</g>
	</g>
	<g>
		<g>
			<path style="fill:#FFB27D;" d="M1357.668,943.729c-12.082,75.203-22.04,156.245-17.729,198.915
				c3.551,11.945,14.528,15.926,24.229,17.478l-6.666,7.272l-18.778,1.074l-25.057-9.874c0,0,1.448-4.949,2.6-13.584
				c1.331-10.032-3.317-32.962-3.317-32.962s-12.222-79.195-5.268-96.979c1.975-5.053,3.275-10.836,4.078-17.116v-0.006
				c2.049-15.993,0.901-35.226-0.447-53.917c-1.46-20.306-3.158-39.972-1.239-54.168c8.758-64.798,8.862-120.837,8.862-120.837
				h49.17c0,0,13.934,39.58,7.438,73.518C1370.031,871.396,1363.592,906.859,1357.668,943.729z"/>
		</g>
		<g>
			<path style="fill:#F3A36C;" d="M1311.76,997.946c2.049-15.993,0.901-35.226-0.447-53.917l36.305-14.681l10.051,14.38
				C1356.129,945.617,1329.114,977.482,1311.76,997.946z"/>
		</g>
		<g>
			<path style="fill:#FFB27D;" d="M1453.021,719.337c0,0,5.57-5.886,9.557-8.799c3.986-2.912,15.179-5.825,16.314-0.938
				c0.505,2.174-3.426,6.983-6.257,8.696c-2.83,1.714-3.271,3.894-6.28,6.96c-3.011,3.066-10.37,3.219-10.37,3.219L1453.021,719.337
				z"/>
		</g>
		<g>
			<path style="fill:#233862;" d="M1289.412,670.688c-2.343-4.518,51.108-20.788,51.956,23.802c0,0,100.129-2.462,52.319-58.272
				c-16.552-19.32-14.849-35.295-14.353-50.165c0.503-14.873-10.309-58.096-47.371-53.743c0,0-9.706-3.949-21.818,2.334
				C1282.6,548.935,1220.893,687.131,1289.412,670.688z"/>
		</g>
		<g>
			<path style="fill:#F77D48;" d="M1358.851,723.747c0,0,3.544,7.016,9.97,15.076c7.745,9.701,19.687,20.906,34.68,23.118
				c7.162,1.057,14.166-0.484,20.604-3.344c0.018-0.006,0.023-0.006,0.023-0.006c18.21-8.084,31.902-26.673,31.902-26.673
				c3.21-8.755-2.043-14.69-2.043-14.69s-36.77,8.271-40.271,6.519c-3.502-1.75-23.93-60.601-28.791-67.995
				c-4.868-7.395-21.444-11.235-21.444-11.235L1358.851,723.747z"/>
		</g>
		<g>
			<path style="fill:#8EB3EF;" d="M1368.82,738.823c7.745,9.701,19.687,20.906,34.68,23.118c7.162,1.057,14.166-0.484,20.604-3.344
				c-0.712,0.094-18.898,2.34-26.147-10.629c-7.395-13.232-15.391-34.243-26.375-27.238
				C1366.842,723.754,1367.052,731.266,1368.82,738.823z"/>
		</g>
		<g>
			<path style="fill:#FFB27D;" d="M1255.169,1171.859c0,0-12.014,0-16.944,0c-4.924,0-10.536-3.771-11.903-12.665
				c-1.367-8.892-11.492-13.742-13.682-21.016c-1.503-4.998,2.048-8.567,5.415-11.314c1.539-1.263,3.042-2.349,3.998-3.317
				c3.446-3.478,6.697-18.502,6.697-18.502l17.87,9.401c0,0-8.42,14.313-3.563,30.411c2.27,7.524,4.3,14.46,9.322,18.783
				c1.184,1.024,2.539,1.896,4.097,2.601C1264.288,1169.773,1255.169,1171.859,1255.169,1171.859z"/>
		</g>
		<g>
			<path style="fill:#F77D48;" d="M1268.141,694.489c0,0-0.939,13.244,0,29.138c0.625,10.535,11.281,24.646,12.793,28.136
				c3.794,8.755,8.072,10.179,8.072,10.179l33.099,8.113l11.639,2.848l36.699-10.961c0,0,16.717-46.656,10.004-72.921
				c-6.712-26.265-16.967-44.504-16.967-44.504s-42.194-10.974-74.882-1.428L1268.141,694.489z"/>
		</g>
		<g>
			<path style="fill:#FFB27D;" d="M1291.105,767.338c0,0-27.724,37.196-30.309,62.342c-2.584,25.146,21.932,94.747,16.426,119.26
				c-4.088,18.194-25.873,32.627-31.89,78.496c-2.091,15.932-9.63,47.801-16.585,77.611l15.359,15.076
				c36.59-83.386,74.422-135.882,76.655-154.318c1.581-13.048,9.001-81.69,39.008-132.36c7.204-12.165-4.421-60.542-4.421-60.542
				L1291.105,767.338z"/>
		</g>
		<g>
			<path style="fill:#2B478B;" d="M1377.27,852.968c-4.076,49.67-8.874,91.507-8.874,91.507s-23.159,15.605-55.933,17.59
				l-0.006,0.007h-0.005c-14.975,0.905-31.95-1.028-49.643-8.589c0,0-6.743-119.951-2.454-139.058
				c4.294-19.106,23.305-45.398,23.305-45.398l85.519,3.305C1369.179,772.331,1381.346,803.291,1377.27,852.968z"/>
		</g>
		<g>
			<path style="fill:#ED7D2B;" d="M1371.012,760.29c0,0-7.297,5.772-21.79,6.065c-17.314,0.349-60.214-4.414-60.214-4.414
				s-1.906,5.325-1.829,10.949c0,0,52.396,13.216,82.753,1.93C1369.932,774.819,1373.849,767.452,1371.012,760.29z"/>
		</g>
		<g>
			<g>
				<path style="fill:#FFFFFF;" d="M1345.475,772.333c0-4.931,3.544-8.941,7.899-8.941c4.357,0,7.9,4.011,7.9,8.941
					c0,4.931-3.543,8.941-7.9,8.941C1349.019,781.274,1345.475,777.264,1345.475,772.333z M1348.093,772.333
					c0,3.485,2.37,6.323,5.281,6.323c2.913,0,5.282-2.838,5.282-6.323c0-3.487-2.369-6.323-5.282-6.323
					C1350.463,766.01,1348.093,768.846,1348.093,772.333z"/>
			</g>
		</g>
		<g>
			
				<rect x="1255.845" y="708.44" transform="matrix(-0.7542 -0.6567 0.6567 -0.7542 1768.176 2176.2434)" style="fill:#8C9DF4;" width="71.18" height="97.433"/>
		</g>
		<g>
			<path style="fill:#FFB27D;" d="M1301.115,770.696c0,0,19.669,2.3,19.606,6.968c-0.061,4.669-4.9,14.261-7.33,14.688
				c-2.43,0.426-16.007-12.972-16.007-12.972L1301.115,770.696z"/>
		</g>
		<g>
			<path style="fill:#F77D48;" d="M1294.539,642.03c0,0-26.26,1.841-36.326,26.311c-10.065,24.47-29.164,65.554-29.164,72.466
				c0,6.911,10.668,28.217,67.963,40.468c0,0,5.926-6.234,5.567-11.164c0,0-35.766-30.72-35.669-34.31
				c0.182-6.792,5.863-15.757,37.264-47.168C1312.711,680.093,1294.539,642.03,1294.539,642.03z"/>
		</g>
		<g>
			<g>
				<path style="fill:#F9DDBF;" d="M1449.231,789.43l78.69-231.293c0.363-1.054,0.845-2.06-0.201-2.441l-0.955-0.348
					c-1.073-0.39-1.388,0.302-1.778,1.375l-83.881,227.967c-0.792,2.179,0.234,4.599,2.353,5.54l1.942,0.864
					C1446.92,791.769,1448.69,791,1449.231,789.43z"/>
			</g>
		</g>
		<g>
			<path style="fill:#FFB27D;" d="M1459.92,718.204c0,0,3.574-0.115,7.358-1.106c2.976-0.779,6.797-2.164,6.797-2.164
				c2.249,1.635-5.558,6.098-7.55,9.148c-1.626,2.487-3.474,3.206-7.96,4.172L1459.92,718.204z"/>
		</g>
		<g>
			<path style="fill:#233862;" d="M1334.145,1171.193c10.94-1.356,8.051,1.438,23.387,1.53c15.334,0.092,20.58-5.018,21.305-7.215
				c0.646-1.948-6.752-3.527-14.667-5.388l-0.283,0.199c0,0-9.642,5.323-22.277,4.152c-10.3-0.949-20.836-5.163-27.941-5.876
				c-0.436,2.33-0.869,4.713-0.671,7.12C1313.554,1172.553,1323.203,1172.55,1334.145,1171.193z"/>
		</g>
		<g>
			<path style="fill:#233862;" d="M1255.169,1171.859c0,0-12.014,0-16.944,0c-4.924,0-10.536-3.771-11.903-12.665
				c-1.367-8.892-11.492-13.742-13.682-21.016c-1.503-4.998,2.048-8.567,5.415-11.314c1.858,2.79,5.881,9.757,9.824,22.592
				c4.605,15.001,15.645,15.43,24.5,14.185c1.184,1.024,2.539,1.896,4.097,2.601
				C1264.288,1169.773,1255.169,1171.859,1255.169,1171.859z"/>
		</g>
		<g>
			<path style="fill:#FFB27D;" d="M1298.666,640.763c5.32-1.182,9.726-4.919,11.559-10.053c2.207-6.183,3.963-15.313,3.923-26.755
				l1.661,0.327l27.941,5.532c0,0-0.637,8.794-0.655,17.077c0,0.068-0.001,0.138-0.001,0.206
				c-0.034,7.194,4.687,13.544,11.598,15.539c3.529,1.02-16.828,27.822-19.157,27.295
				C1330.689,668.836,1296.979,641.138,1298.666,640.763z"/>
		</g>
		<g>
			<path style="fill:#E8945B;" d="M1343.75,609.815c0,0-0.637,8.794-0.655,17.077c-15.636-0.44-23.899-14.703-27.286-22.609
				L1343.75,609.815z"/>
		</g>
		<g>
			<path style="fill:#FFB27D;" d="M1348.971,617.659c0,0-36.992,0.609-37.019-22.434c-0.024-23.043-4.816-38.482,18.801-39.848
				c23.618-1.363,28.218,7.425,30.096,15.113C1362.729,578.181,1358.593,616.906,1348.971,617.659z"/>
		</g>
		<g>
			<path style="fill:#233862;" d="M1347.603,554.813c0,0-10.129,27.034-25.674,31.032c-15.543,3.996-22.286-0.168-22.286-0.168
				s11.924-9.472,14.397-26.005C1314.04,559.673,1339.962,541.947,1347.603,554.813z"/>
		</g>
		<g>
			<path style="fill:#233862;" d="M1345.092,557.009c0,0,7.511,2.808,10.602,8.285c3.022,5.358,5.599,12.452,5.001,21.155
				c0,0,7.631-18.375-0.945-28.77C1350.655,546.658,1345.092,557.009,1345.092,557.009z"/>
		</g>
		<g>
			<path style="fill:#FFFFFF;" d="M1341.744,603.981c0,0,0.639,2.715,7.395,2.296c0,0,5.673-0.351,5.498-3.335
				C1354.637,602.941,1349.138,600.818,1341.744,603.981z"/>
		</g>
		<g>
			<path style="fill:#FF9773;" d="M1335.534,669.932c0,0-25.021-26.727-25.959-37.65c0,0-6.379,1.771-13.884,9.072
				c0,0,6.014,15.065,13.191,20.033c0,0,5.226-0.737,9.341-2.429c0,0-2.611,4.333-4.683,6.92
				C1313.541,665.878,1324.879,672.308,1335.534,669.932z"/>
		</g>
		<g>
			<path style="fill:#FF9773;" d="M1344.304,633.303c0,0,9.869,18.037-8.77,36.629c0,0,11.695-2.236,17.707-10.484
				c0,0-1.863-4.427-3.448-5.451c0,0,3.513-1.398,5.718,0.652c0,0,1.337-9.673,0-12.618
				C1354.173,639.085,1347.2,633.207,1344.304,633.303z"/>
		</g>
		<g>
			<path style="fill:#233862;" d="M1333.67,669.932c0-1.028,0.835-1.864,1.864-1.864s1.864,0.836,1.864,1.864
				c0,1.029-0.835,1.864-1.864,1.864S1333.67,670.961,1333.67,669.932z"/>
		</g>
		<g>
			<path style="fill:#233862;" d="M1343.61,696.354c0-1.029,0.835-1.864,1.864-1.864c1.03,0,1.863,0.835,1.863,1.864
				s-0.833,1.863-1.863,1.863C1344.445,698.217,1343.61,697.383,1343.61,696.354z"/>
		</g>
		<g>
			<path style="fill:#233862;" d="M1345.475,727.339c0-1.029,0.834-1.863,1.863-1.863c1.03,0,1.864,0.834,1.864,1.863
				c0,1.03-0.834,1.863-1.864,1.863C1346.309,729.202,1345.475,728.369,1345.475,727.339z"/>
		</g>
		<g>
			<path style="fill:#233862;" d="M1377.27,852.968c-4.076,49.67-8.874,91.507-8.874,91.507s-23.159,15.605-55.933,17.59
				c0.582-0.217,19.219-7.402,33.013-23.551C1359.488,922.113,1377.27,852.968,1377.27,852.968z"/>
		</g>
	</g>
	<g>
		<g>
			<path style="fill:#ED985F;" d="M937.462,1195.822c-4.762-15.293-25.473-18.16-33.806-4.481c-1.498,2.46-2.446,5.287-2.529,8.525
				c-0.459,17.93,34.903,87.333,39.597,93.473c8.546,11.177,60.125,38.054,60.125,38.054l10.961-1.598
				c0,0-6.196-3.895-12.612-10.299c-13.254-13.23-32.572-34.74-36.111-37.721C957.012,1276.664,946.505,1224.857,937.462,1195.822z"
				/>
		</g>
		<g>
			<path style="fill:#233862;" d="M952.434,1108.098c0.285-1.15-25.021,11.438-26.305,12.861
				c-11.868,13.165-8.484,30.346-1.692,30.51c4.355,0.106,3.511,7.348,3.511,7.348l48.522-20.526
				C976.47,1138.29,970.627,1104.222,952.434,1108.098z"/>
		</g>
		<g>
			<path style="fill:#233862;" d="M958.408,1110.756c0,0,1.734-18.902-19.387-18.902c0,0,6.4,1.735,9.711,5.207
				c0,0-13.471-7.908-28.13,4.244c-14.658,12.151-5.55,42.626-10.007,48.412c-4.459,5.787-21.818,6.944-19.696,25.653
				c2.121,18.71,55.095,42.143,51.692,57.623c0,0,20.759-30.516,5.915-44.442c0,0,7.235,6.814,7.972,14.916
				c0,0,1.964-15.816-8.101-20.875c-8.907-4.477-16.202-20.85-15.431-23.775C933.719,1155.89,958.408,1110.756,958.408,1110.756z"/>
		</g>
		<g>
			<path style="fill:#2B478B;" d="M899.085,1519.471l-10.5-1.543c0,0-35.305-28.057-40.564-80.408
				c-0.536-5.327-0.647-10.736-0.25-16.187c0.046-0.629-0.023-1.258-0.367-1.786c0-0.004-0.004-0.009-0.012-0.016
				c-1.13-1.732-3.942-6.071-7.75-12.244c-3.753-6.079-10.177-17.575-17.243-30.476c-12.73-23.23-27.552-51.013-32.635-59.862
				c-16.199-28.203-8.391-47.167-8.391-47.167s45.187-4.468,57.57-15.3l4.46,6.874c0,0,9.791,43.345,9.328,43.545
				c0.482,1.475,0.972,2.975,1.47,4.502c7.727,23.849,16.614,53.655,21.46,77.933c2.724,13.66,4.165,25.561,3.391,33.669
				c-0.266,2.781,0.058,7.056,0.798,12.333C884.226,1464.446,899.085,1519.471,899.085,1519.471z"/>
		</g>
		<g>
			<path style="fill:#233862;" d="M921.11,1532.756h-43.807c0,0-1.051-6.677,1.238-11.742c2.192-4.86,5.317-5.015,0.398-12.634
				c2.784,2.866,11.733,4.052,18.066,3.2c0.775,1.258,5.003,9.698,7.595,11.56C907.463,1525.197,920.229,1524.464,921.11,1532.756z"
				/>
		</g>
		<g>
			<path style="fill:#233862;" d="M854.202,1309.403c-3.827,21.105-12.866,56.229-31.803,67.408
				c-12.73-23.23-27.552-51.013-32.635-59.862c-16.199-28.203-8.391-47.167-8.391-47.167s45.187-4.468,57.57-15.3l4.46,6.874
				c0,0,9.791,43.345,9.328,43.545C853.214,1306.376,853.704,1307.876,854.202,1309.403z"/>
		</g>
		<g>
			<path style="fill:#2B478B;" d="M823.478,1273.041l0.148-8.193c-16.324,2.059-56.286-19.507-56.286-19.507
				s-17.078,11.358-19.416,43.798c-1.141,15.833-8.359,82.793-9.158,102.787c-0.291,7.247-0.388,12.418-0.421,14.484
				c0.004,0.011,0.004,0.017,0.002,0.021c-0.009,0.629-0.306,1.187-0.693,1.686c-3.378,4.293-6.308,8.841-8.846,13.559
				c-24.909,46.345-11.883,109.319-11.883,109.319l5.784-1.471c0,0,21.063-65.282,34.828-93.521
				c2.336-4.789,4.458-8.515,6.233-10.672c5.177-6.286,10.634-16.962,16.014-29.811c10.169-24.29,20.041-56.343,27.083-81.161
				C807.363,1314.451,823.478,1273.041,823.478,1273.041z"/>
		</g>
		<g>
			<path style="fill:#FFB27D;" d="M919.006,1218.358c-26.686-6.124-9.637-43.624-8.091-42.965
				c3.698-0.753,11.819-7.245,19.083-19.926l0.982,0.852l16.391,14.37c0,0-2.162,5.571-6.976,11.063
				c-3.267,3.728-11.387,7.301-11.051,8.749C930.664,1191.54,926.125,1219.994,919.006,1218.358z"/>
		</g>
		<g>
			<path style="fill:#9DB0F4;" d="M935.856,1190.502c0,0,4.691,9.26,7.195,17.28c2.504,8.021,8.768,33.529,8.768,33.529
				s-12.918,14.742-30.888,13.881c0,0-9.663-15.124-6.258-28.783C918.078,1212.75,935.856,1190.502,935.856,1190.502z"/>
		</g>
		<g>
			<path style="fill:#ED985F;" d="M947.37,1170.693c0,0-1.298,4.89-6.977,11.063c-8.411-11.143-10.202-18.898-9.417-25.434
				L947.37,1170.693z"/>
		</g>
		<g>
			<path style="fill:#FFB27D;" d="M947.824,1177.891c0,0-24.743-13.768-15.933-29.045c8.812-15.276,11.552-27.342,27.724-19.198
				c16.171,8.146,15.85,15.729,14.149,21.544C972.063,1157.006,954.487,1181.079,947.824,1177.891z"/>
		</g>
		<g>
			<path style="fill:#233862;" d="M977.943,1142.281c-1.133-6.783-4.578-7.431-6.981-6.978c-9.138-15.112-24.066-9.214-24.066-9.214
				c-7.974,10.006-19.502,11.714-19.502,11.714s2.871,5.342,14.701,8.649c3.614,1.01,7.715,0.398,11.671-0.933
				c-8.208,4.575-16.792,6.328-16.792,6.328c15.591,1.428,30.424-12.825,31.963-14.35c0.719,2.208,1.981,6.833,1.225,10.214
				c-1.025,4.594-5.104,12.915-2.614,13.991C967.548,1161.704,979.644,1152.453,977.943,1142.281z"/>
		</g>
		<g>
			<path style="fill:#233862;" d="M751.761,1532.756h-43.808c0,0-1.05-6.677,1.239-11.742c2.192-4.86,5.626-7.069,4.804-12.95
				c2.783,2.866,7.32,6.076,13.654,5.224c0.775,1.259,5.009,7.991,7.601,9.853C738.114,1525.197,750.879,1524.464,751.761,1532.756z
				"/>
		</g>
		<g>
			<path style="fill:#AEC3FF;" d="M922.148,1248.087c-5.637,1.966-13.547,3.047-21.638,3.924
				c-11.521,1.259-23.415,2.115-29.644,4.604c-1.218,0.482-4.761,1.965-8.31,4.536v0.006c0,0-0.088,0.055-0.244,0.184
				c-1.177,0.856-2.353,1.85-3.434,2.966c-1.652,1.699-3.094,3.686-4.02,5.964c-2.285,5.644,0.742,21.291,2.68,29.846
				c0.781,3.441-0.843,6.998-3.978,8.623c-4.379,2.265-8.685,4.359-12.914,6.271c-0.224,0.102-0.442,0.197-0.666,0.299
				c0.041-0.87,0.055-1.733,0.055-2.577c0.007-5.903-0.741-10.813-0.741-10.813c-1.041,5.957-4.964,12.39-8.624,17.341
				c-58.788,23.591-99.862,13.335-99.189,1.584c2.318-40.802,29.833-75.504,29.833-75.504
				c51.315-59.674,155.115-75.382,155.115-75.382s4.972-0.599,10.97,6.609c8.629,10.385,9.059,13.092,9.059,13.092
				S938.733,1242.3,922.148,1248.087z"/>
		</g>
		<g>
			<path style="fill:#9DB0F4;" d="M900.505,1252.011c-11.519,1.257-23.412,2.117-29.643,4.602
				c-2.546-38.044,15.407-66.659,15.407-66.659S897.982,1237.614,900.505,1252.011z"/>
		</g>
		<g>
			<path style="fill:#9DB0F4;" d="M857.537,1300.116c0.781,3.441-0.843,6.998-3.978,8.623c-4.379,2.265-8.685,4.359-12.914,6.271
				c-0.224-0.722-0.428-1.477-0.611-2.278c-0.666-2.979-0.973-6.542-0.741-10.813c0.978-18.062,13.28-31.737,19.585-37.612
				c-1.652,1.699-3.094,3.686-4.02,5.964C852.572,1275.914,855.6,1291.562,857.537,1300.116z"/>
		</g>
		<g>
			<path style="fill:#9DB0F4;" d="M916.428,1169.958c0,0,4.521-5.713,7.575-5.529c0,0,12.353,17.294,12.453,25.23
				C936.456,1189.659,921.048,1169.155,916.428,1169.958z"/>
		</g>
		<g>
			<path style="fill:#ED985F;" d="M1034.942,1337.309c0,0-6.567,0.117-7.985-0.088c-1.392-0.2-3.252-0.805-5.123-0.871
				c-1.839-0.067-3.529,0.529-5.258,0.883c-0.257,0.053-0.519,0.076-0.781,0.076H1004.9c0,0-1.092-0.522-2.289-2.446
				c-0.516-0.833-0.586-2.815-1.763-3.47c-6.597-3.682,10.961-1.598,10.961-1.598s11.022-0.2,12.041,0.561
				C1025.662,1331.716,1035.354,1336.786,1034.942,1337.309z"/>
		</g>
		<g>
			<path style="fill:#ED985F;" d="M1004.901,1337.311c0,0,6.688,1.931,8.506,3.17l1.919,1.212c0,0,1.11-1.239-0.638-2.616
				c-0.924-0.726-3.471-2.85-3.554-5.287C1011.053,1331.352,1003.501,1333.479,1004.901,1337.311z"/>
		</g>
		<g>
			<path style="fill:#FFFFFF;" d="M1110.081,1525.726L1110.081,1525.726c-15.749,0-28.516-12.767-28.516-28.516v-180.092h57.031
				v180.092C1138.597,1512.959,1125.83,1525.726,1110.081,1525.726z"/>
		</g>
		<g>
			<path style="fill:#F77D48;" d="M1110.081,1517.455L1110.081,1517.455c-11.702,0-21.188-9.486-21.188-21.188v-64.055h42.374
				v64.055C1131.268,1507.969,1121.782,1517.455,1110.081,1517.455z"/>
		</g>
		<g>
			<path style="fill:#FFFFFF;" d="M981.106,1390.172L981.106,1390.172c-14.51-6.123-21.309-22.85-15.185-37.359l70.024-165.92
				l52.544,22.175l-70.024,165.92C1012.342,1389.497,995.614,1396.296,981.106,1390.172z"/>
		</g>
		<g>
			<path style="fill:#8C9DF4;" d="M986.33,1383.399l-4.018-1.695c-9.671-4.081-14.202-15.23-10.12-24.901l50.518-119.703
				l45.529,1.099l-57.01,135.081C1007.149,1382.95,996.001,1387.481,986.33,1383.399z"/>
		</g>
		<g>
			<path style="fill:#FFB27D;" d="M975.745,1356.913c0,0,4.78,4.247,8.415,5.144c3.635,0.896,7.766,11.307,8.427,12.794
				c0.661,1.486-3.47-0.661-5.121-3.195c-1.653-2.533-2.782-3.524-3.265-2.974c-0.482,0.551,0.289,7.49,3.043,11.346
				c2.755,3.855,4.406,7.271,2.424,7.051c-1.983-0.221-13.77-3.085-16.193-10.245c-2.424-7.16-0.646-7.411-6.217-14.776
				C961.688,1354.691,975.745,1356.913,975.745,1356.913z"/>
		</g>
		<g>
			<path style="fill:#FFB27D;" d="M912.602,1182.592c0,0-28.87,2.853-31.184,21.611c-2.314,18.758,27.679,95.165,31.975,102.083
				c7.819,12.596,53.865,55.771,53.865,55.771l8.487-5.144c0,0-32.661-55.293-37.719-60.468
				C930.088,1288.321,922.378,1189.09,912.602,1182.592z"/>
		</g>
		<g>
			<path style="fill:#AEC3FF;" d="M927.394,1218.429c0,0,2.965-48.366-34.055-36.672c-37.021,11.695,5.745,94.886,5.745,94.886
				s21.727-1.072,29.433-20.03L927.394,1218.429z"/>
		</g>
		<g>
			<g>
				<rect x="987.357" y="1498.265" style="fill:#2B478B;" width="176.346" height="8.015"/>
			</g>
			<g>
				<rect x="987.357" y="1504.775" style="fill:#2B478B;" width="12.118" height="27.754"/>
			</g>
			<g>
				<rect x="1149.896" y="1498.265" style="fill:#2B478B;" width="13.808" height="34.265"/>
			</g>
		</g>
		<g>
			<rect x="1078.28" y="1313.861" style="fill:#FFFFFF;" width="61.927" height="7.135"/>
		</g>
		<g>
			
				<rect x="1031.228" y="1194.473" transform="matrix(0.9213 0.3888 -0.3888 0.9213 549.3892 -318.7277)" style="fill:#FFFFFF;" width="61.927" height="7.135"/>
		</g>
	</g>
	<g>
		<g>
			<path style="fill:#2B478B;" d="M1331.707,1255.324l-55.516,261.577l-8.241-1.749c-0.091-0.02,0.677-26.134,0.677-26.134
				l50.18-236.433L1331.707,1255.324z"/>
		</g>
		<g>
			<polygon style="fill:#0B0755;" points="1269.74,1515.532 1269.025,1533.014 1274.578,1516.559 			"/>
		</g>
		<g>
			<path style="fill:#2B478B;" d="M1341.383,1257.377l-55.517,261.578l8.24,1.748c0.091,0.02,9.997-24.156,9.997-24.156
				l50.18-236.432L1341.383,1257.377z"/>
		</g>
		<g>
			
				<rect x="1337.757" y="1210.299" transform="matrix(-0.9782 -0.2076 0.2076 -0.9782 2401.2886 2706.7244)" style="fill:#2B478B;" width="9.891" height="34.069"/>
		</g>
		<g>
			<path style="fill:#F77D48;" d="M1318.807,1252.586l3.335,18.694l-6.958,32.784l21.501,4.563l6.958-32.783l10.641-15.729
				c2.077-9.788-4.177-19.412-13.965-21.49l-0.022-0.005C1330.509,1236.543,1320.884,1242.797,1318.807,1252.586z"/>
		</g>
		<g>
			<path style="fill:#2B478B;" d="M1341.495,1256.851c0.565-2.672-1.14-5.298-3.812-5.864c-2.672-0.568-5.297,1.139-5.865,3.811
				c-0.566,2.672,1.14,5.298,3.812,5.864C1338.302,1261.229,1340.927,1259.522,1341.495,1256.851z"/>
		</g>
		<g>
			<polygon style="fill:#0B0755;" points="1292.316,1520.323 1285.869,1536.589 1287.479,1519.297 			"/>
		</g>
		<g>
			<path style="fill:#F77D48;" d="M1301.608,1493.305c0.966-4.553-1.94-9.025-6.493-9.991c-4.551-0.966-9.024,1.94-9.99,6.493
				c-0.967,4.551,1.94,9.024,6.492,9.991C1296.17,1500.764,1300.643,1497.856,1301.608,1493.305z"/>
		</g>
	</g>
	<g>
		<g>
			<g>
				<path style="fill:#8C9DF4;" d="M1850.821,1082.071c-0.325,8.358-3.021,1.86-8.949,12.426c-0.244,0.488,6.366,7.302,6.041,7.79
					c-1.313,4.739-3.813,9.895-6.712,15.04c-4.779,8.501-10.596,16.933-13.739,23.247c-4.718-1.403-8.856-3.061-12.456-4.881
					c-11.878-5.959-18.051-13.525-20.775-18.366c7.128-14.48,15.67-30.386,24.02-48.578c0.895-2.034,1.789-3.986,2.685-5.847
					c0.081-0.164,0.162-0.407,0.315-0.57c0.487-0.895,0.895-1.709,1.301-2.44c0-0.081,0.082-0.163,0.163-0.244
					c1.871-3.569,3.824-6.416,5.603-8.278c0,0,4.313-3.416,6.254-2.604c0,0,3.824,1.953,7.719,6.58
					c0.489,0.407,0.814,0.896,1.14,1.383c2.359,3,4.627,6.986,6.01,12.021C1850.496,1072.563,1851.066,1076.955,1850.821,1082.071z"
					/>
			</g>
			<g>
				<path style="fill:#FFB27D;" d="M1841.875,1513.622l10.732,3.996c0,0,46.619-64.657,52.358-121.544
					c1.025-10.156,0.683-19.997-1.533-29.084c0,0,0.455-2.602,1.253-7.202c0.368-2.147,0.823-4.732,1.341-7.693
					c1.516-8.685,3.602-20.566,5.985-34.096c5.484-31.134,12.592-70.934,18.112-100.192l-2.892-0.929l-31.292-10.095l-6.467-20.539
					l-23.3-6.134c0,0-5.205,10.182-9.858,58.28c-0.858,6.309-1.639,13.266-2.226,20.811c-1.813,23.029-1.944,51.595,2.217,84.253
					c1.069,8.36,2.419,16.991,4.093,25.859c1.226,6.502,1.41,15.36,0.894,25.534
					C1858.944,1441.351,1841.875,1513.622,1841.875,1513.622z"/>
			</g>
			<g>
				<path style="fill:#FFB27D;" d="M1876.348,1193.018l1.172-10.044c19.623,5.213,72.053-14.563,72.053-14.563
					s19.01,16.71,16.514,56.765c-1.219,19.551-3.443,102.628-5.768,127.211c-0.84,8.911-1.576,15.251-1.877,17.783
					c-0.006,0.013-0.006,0.019-0.006,0.024c-0.092,0.772,0.178,1.503,0.57,2.177c3.422,5.808,6.254,11.854,8.58,18.041
					c22.811,60.788-3.516,135.648-3.516,135.648l-6.83-2.753c0,0-14.98-83.311-27.154-120.116
					c-2.066-6.242-4.046-11.147-5.861-14.079c-5.292-8.542-10.204-22.499-14.662-39.099c-8.426-31.383-15.207-72.211-19.721-103.724
					C1889.219,1246.318,1876.348,1193.018,1876.348,1193.018z"/>
			</g>
			<g>
				<path style="fill:#304B77;" d="M1924.355,1531.641h54.058c0,0,1.296-8.238-1.528-14.488c-2.705-5.998-6.943-8.725-5.929-15.981
					c-3.435,3.537-9.034,7.497-16.849,6.446c-0.957,1.552-6.181,9.86-9.379,12.158
					C1941.195,1522.314,1925.443,1521.409,1924.355,1531.641z"/>
			</g>
			<g>
				<path style="fill:#304B77;" d="M1808.286,1531.641h54.058c0,0,2.021-8.622-1.528-14.488c-3.142-5.191-1.938-8.149,0.39-12.443
					c-2.449,1.002-5.617,1.914-9.104,1.714c-2.694-0.154-5.542-1.376-8.04-2.827c-2.326,2.652-12.288,13.942-15.401,16.18
					C1825.126,1522.314,1809.373,1521.409,1808.286,1531.641z"/>
			</g>
			<g>
				<path style="fill:#2B478B;" d="M1937.361,1142.456c0,0,33.475,37.287,34.152,93.557s0,123.775,0,123.775
					s-35.859,17.014-123.602,6.241l21.666-204.253L1937.361,1142.456z"/>
			</g>
			<g>
				<path style="fill:#2C3A64;" d="M1859.469,934.321c0.053-1.463,1.185-17.224,25.19-18.046c0,0-11.804,1.406-13.845,6.596
					c0,0,8.038-6.413,14.584-4.35c6.547,2.063,10.391,13.531,10.43,17.304c0.039,3.771-3.599,15.931-7.753,16.965
					c-1.573,0.392-3.386,0.287-5.031,0.007c1.105,1.726,2.188,3.631,3.224,5.756c9.579,19.664-0.299,38.881-8.408,36.758
					c-5.201-1.362-6.673,7.514-6.673,7.514l-50.53-40.907C1820.656,961.917,1839.217,923.513,1859.469,934.321z"/>
			</g>
			<g>
				<path style="fill:#FFB27D;" d="M1838.861,1071.189c6.159,2.857,13.6,4.803,22.598,5.293
					c33.736,1.85,41.396-27.725,42.788-47.353c-4.863-1.761-9.122-1.595-11.575-1.464c-0.913,0.051-1.842,0.117-2.756,0.195
					c-3.35,0.283-6.615-1.143-8.684-3.795c-3.852-4.937-8.352-13.717-11.334-25.913l-1.455,0.676l-24.343,11.443
					c0,0,2.586,7.921,4.496,15.501c0.822,3.277,1.517,6.493,1.823,8.986c0.289,2.358-1.04,4.616-3.226,5.551h-0.001
					c0,0,0,0.009-0.009,0.026C1846.939,1040.959,1841.646,1054.445,1838.861,1071.189z"/>
			</g>
			<g>
				<path style="fill:#8C9DF4;" d="M1950.836,1160.76c-0.092,4.24-9.619,8.095-22.352,10.76c-7.099,1.484-15.203,2.604-23.207,3.214
					c-19.941,1.515-39.354-0.122-41.643-7.068c0,0-31.287-47.31-39.829-65.716c-0.305-0.672,6.87-7.95,6.616-8.621
					c-6.732-17.857,6.152-35.837-2.542-41.48c0,0,4.87-5.868,19.312-11.531c0,0,0,0-0.01,0.02
					c-0.225,0.845-1.617,13.494,0.772,18.173c6.925,13.556,28.311,6.172,34.341-2.868c5.613-8.42,10.454-19.738,10.404-25.616
					c-0.012-1.464-0.031-2.359-0.031-2.359s16.098-2.176,25.148,1.484c0,0-3.569,7.76-4.881,16.322
					c-0.123,0.813-0.234,1.627-0.315,2.44c-0.173,1.729-0.224,3.457-0.122,5.136c0.122,2.228,1.271,4.199,3.102,6.132
					c1.668,1.77,3.925,3.509,6.488,5.379c1.677,1.211,3.468,2.481,5.328,3.854c0.153,10.077-0.549,26.653,1.313,44.349
					c0.102,0.976,0.254,1.932,0.457,2.888c0.701,3.438,2.014,6.712,3.855,9.691c0.935,1.516,2.002,2.959,3.192,4.292
					c3.04,3.405,6,6.467,8.511,9.487C1950.084,1145.537,1953.357,1151.76,1950.836,1160.76z"/>
			</g>
			<g>
				<path style="fill:#ED985F;" d="M1844.1,1010.277c0,0,2.588,7.914,4.496,15.501c14.229-3.97,18.549-18.927,19.849-26.944
					L1844.1,1010.277z"/>
			</g>
			<g>
				<path style="fill:#FFB27D;" d="M1841.104,1018.656c0,0,34.042-7.878,28.809-29.002c-5.232-21.123-4.362-36.367-26.318-32.23
					c-21.956,4.137-24.166,13.24-24.135,20.716C1819.49,985.615,1832.113,1020.161,1841.104,1018.656z"/>
			</g>
			<g>
				<path style="fill:#2C3A64;" d="M1817.545,966.146c3.66-7.656,7.967-7.248,10.661-5.891c15.995-14.8,31.685-2.709,31.685-2.709
					c6.039,14.589,19.126,20.549,19.126,20.549s-5.229,5.355-20.387,5.237c-4.63-0.036-9.284-2.162-13.521-5.091
					c8.17,8.229,17.75,13.238,17.75,13.238c-18.974-3.631-31.697-25.598-33-27.93c-1.607,2.373-4.683,7.426-4.941,11.692
					c-0.352,5.799,1.644,17.059-1.677,17.485C1823.241,992.729,1812.057,977.629,1817.545,966.146z"/>
			</g>
			<g>
				<g>
					<path style="fill:#F77D48;" d="M1757.179,998.317l-191.998,531.818l385.456-237.99L1757.179,998.317z M1688.524,1377.764
						l86.76-240.322l76.629,128.468L1688.524,1377.764z"/>
				</g>
				<g>
					<g>
						<g>
							<polygon style="fill:#060633;" points="1907.937,1280.941 1909.647,1279.884 1923.779,1301.348 1922.066,1302.404 							"/>
						</g>
						<g>
							<g>
								<polygon style="fill:#060633;" points="1903.697,1295.988 1905.41,1294.931 1913.723,1307.557 1912.01,1308.613 								"/>
							</g>
							<g>
								<polygon style="fill:#060633;" points="1895.245,1301.206 1896.957,1300.149 1905.27,1312.775 1903.558,1313.832 								
									"/>
							</g>
							<g>
								<polygon style="fill:#060633;" points="1887.221,1306.161 1888.933,1305.104 1897.245,1317.729 1895.533,1318.786 								
									"/>
							</g>
							<g>
								<polygon style="fill:#060633;" points="1879.803,1310.741 1881.515,1309.684 1889.827,1322.31 1888.115,1323.366 								
									"/>
							</g>
							<g>
								<polygon style="fill:#060633;" points="1871.529,1315.85 1873.24,1314.792 1881.553,1327.418 1879.841,1328.475 								"/>
							</g>
						</g>
						<g>
							<polygon style="fill:#060633;" points="1857.436,1312.12 1859.148,1311.063 1873.279,1332.526 1871.567,1333.583 							"/>
						</g>
						<g>
							<g>
								<polygon style="fill:#060633;" points="1853.197,1327.167 1854.909,1326.11 1863.222,1338.735 1861.511,1339.792 								
									"/>
							</g>
							<g>
								<polygon style="fill:#060633;" points="1844.746,1332.386 1846.457,1331.329 1854.77,1343.955 1853.058,1345.012 								
									"/>
							</g>
							<g>
								<polygon style="fill:#060633;" points="1836.721,1337.341 1838.434,1336.283 1846.745,1348.908 1845.033,1349.965 								
									"/>
							</g>
							<g>
								<polygon style="fill:#060633;" points="1829.303,1341.921 1831.015,1340.863 1839.327,1353.489 1837.615,1354.546 								
									"/>
							</g>
							<g>
								<polygon style="fill:#060633;" points="1821.028,1347.029 1822.741,1345.972 1831.054,1358.598 1829.341,1359.654 								
									"/>
							</g>
						</g>
					</g>
					<g>
						<g>
							<polygon style="fill:#060633;" points="1803.762,1345.26 1805.474,1344.203 1819.605,1365.665 1817.893,1366.722 							"/>
						</g>
						<g>
							<g>
								<polygon style="fill:#060633;" points="1799.523,1360.307 1801.235,1359.25 1809.549,1371.875 1807.836,1372.932 								
									"/>
							</g>
							<g>
								<polygon style="fill:#060633;" points="1791.071,1365.525 1792.782,1364.468 1801.096,1377.094 1799.384,1378.15 								
									"/>
							</g>
							<g>
								<polygon style="fill:#060633;" points="1783.047,1370.479 1784.759,1369.422 1793.071,1382.048 1791.359,1383.105 								
									"/>
							</g>
							<g>
								<polygon style="fill:#060633;" points="1775.629,1375.06 1777.341,1374.002 1785.652,1386.628 1783.941,1387.685 								
									"/>
							</g>
							<g>
								<polygon style="fill:#060633;" points="1767.355,1380.168 1769.066,1379.11 1777.379,1391.736 1775.667,1392.793 								
									"/>
							</g>
						</g>
						<g>
							<polygon style="fill:#060633;" points="1753.262,1376.438 1754.974,1375.381 1769.105,1396.845 1767.394,1397.901 							"/>
						</g>
						<g>
							<g>
								<polygon style="fill:#060633;" points="1749.023,1391.485 1750.734,1390.429 1759.048,1403.054 1757.337,1404.111 								
									"/>
							</g>
							<g>
								<polygon style="fill:#060633;" points="1740.57,1396.705 1742.283,1395.647 1750.596,1408.273 1748.884,1409.329 								
									"/>
							</g>
							<g>
								<polygon style="fill:#060633;" points="1732.547,1401.658 1734.26,1400.602 1742.571,1413.227 1740.859,1414.284 								
									"/>
							</g>
							<g>
								<polygon style="fill:#060633;" points="1725.129,1406.239 1726.841,1405.182 1735.153,1417.807 1733.44,1418.863 								
									"/>
							</g>
							<g>
								<polygon style="fill:#060633;" points="1716.854,1411.348 1718.566,1410.29 1726.88,1422.916 1725.167,1423.973 								"/>
							</g>
						</g>
					</g>
					<g>
						<g>
							<polygon style="fill:#060633;" points="1700.515,1409.005 1702.228,1407.948 1716.357,1429.411 1714.646,1430.468 							"/>
						</g>
						<g>
							<g>
								<polygon style="fill:#060633;" points="1696.277,1424.053 1697.988,1422.996 1706.301,1435.62 1704.59,1436.678 								"/>
							</g>
							<g>
								<polygon style="fill:#060633;" points="1687.824,1429.271 1689.536,1428.214 1697.85,1440.84 1696.137,1441.896 								"/>
							</g>
							<g>
								<polygon style="fill:#060633;" points="1679.8,1434.226 1681.512,1433.169 1689.824,1445.793 1688.113,1446.851 								"/>
							</g>
							<g>
								<polygon style="fill:#060633;" points="1672.382,1438.806 1674.094,1437.748 1682.406,1450.374 1680.694,1451.431 								
									"/>
							</g>
							<g>
								<polygon style="fill:#060633;" points="1664.108,1443.914 1665.82,1442.856 1674.133,1455.482 1672.421,1456.539 								
									"/>
							</g>
						</g>
						<g>
							<polygon style="fill:#060633;" points="1650.016,1440.185 1651.727,1439.128 1665.858,1460.591 1664.146,1461.647 							"/>
						</g>
						<g>
							<g>
								<polygon style="fill:#060633;" points="1645.776,1455.231 1647.488,1454.175 1655.802,1466.8 1654.089,1467.857 								"/>
							</g>
							<g>
								<polygon style="fill:#060633;" points="1637.324,1460.449 1639.037,1459.394 1647.349,1472.019 1645.638,1473.075 								
									"/>
							</g>
							<g>
								<polygon style="fill:#060633;" points="1629.301,1465.404 1631.012,1464.348 1639.324,1476.973 1637.612,1478.03 								
									"/>
							</g>
							<g>
								<polygon style="fill:#060633;" points="1621.882,1469.984 1623.594,1468.928 1631.906,1481.553 1630.194,1482.609 								
									"/>
							</g>
							<g>
								<polygon style="fill:#060633;" points="1613.608,1475.094 1615.319,1474.036 1623.633,1486.662 1621.921,1487.718 								
									"/>
							</g>
						</g>
					</g>
					<g>
						<g>
							<polygon style="fill:#060633;" points="1596.341,1473.323 1598.054,1472.267 1612.184,1493.729 1610.473,1494.786 							"/>
						</g>
					</g>
				</g>
			</g>
			<g>
				<path style="fill:#FFB27D;" d="M1737.341,1048.641c0,0-6.676,1.644-8.372,8.984c-1.697,7.341,3.419,14.003,8.146,12.569
					C1741.373,1068.904,1744.672,1050.843,1737.341,1048.641z"/>
			</g>
			<g>
				<path style="fill:#6980E2;" d="M1946.514,1135.591l-1.77,3.529l-16.26,32.399c-7.099,1.484-15.203,2.604-23.207,3.214
					c20.816-18.691,12.679-68.988,12.679-68.988h2.627l8.603,9.904L1946.514,1135.591z"/>
			</g>
			<g>
				<path style="fill:#FFB27D;" d="M1957.445,1126.439c5.886,22.723-24.447,86.287-24.447,86.287l-11.79-12.94
					c0,0,4.054-31.045,7.256-41.188c1.865-5.828,0.782-15.527,0.481-18.122C1928.496,1136.463,1956.642,1123.303,1957.445,1126.439z
					"/>
			</g>
			<g>
				<path style="fill:#FFB27D;" d="M1922.87,1190.505c0,0-4.361,27.603-8.136,29.91c-3.773,2.308-11.447,10.393-13.181,14.923
					c0,0-0.161,1.921,1.619,2.126c1.779,0.205,6.268-5.07,9.067-3.635c0.196,1.026,2.196,6.942,1.582,11.07
					c-0.461,3.098-2.251,7.064-2.096,9.62c0.155,2.557,14.669,0.37,17.858-7.369c2.573-6.243-1.421-14.015,0.539-21.815
					c1.718-6.845,7.237-32.796,7.237-32.796L1922.87,1190.505z"/>
			</g>
			<g>
				<path style="fill:#8C9DF4;" d="M1917.821,1029.147c0,0,12.677,2.991,22.167,19.337c9.492,16.346,25.424,75.328,20,101.768
					c0,0-9.455,9.152-33.371,2.033c0,0-6.627-39.32-10.019-55.253c-3.389-15.932-17.625-51.185-17.625-51.185L1917.821,1029.147z"/>
			</g>
		</g>
		<g>
			<polygon style="fill:#F77D48;" points="1906.803,1225.569 1912.24,1233.829 1907.303,1239.815 1897.011,1240.458 
				1896.045,1230.568 			"/>
		</g>
	</g>
	<g>
		<path style="fill:#233862;" d="M2662.433,1537.755H146.515c-1.544,0-2.808-1.263-2.808-2.808v-0.844
			c0-1.544,1.264-2.808,2.808-2.808h2515.918c1.544,0,2.808,1.264,2.808,2.808v0.844
			C2665.24,1536.492,2663.977,1537.755,2662.433,1537.755z"/>
	</g>
</g>
</svg>
