<svg width="117" height="105" viewBox="0 0 117 105" fill="none" xmlns="http://www.w3.org/2000/svg">
<path d="M50.051 10.8178C47.8268 11.3015 44.0672 12.1015 41.6855 12.5852C34.2846 14.0736 29.6393 15.0597 25.6435 15.9713C21.884 16.8085 21.7856 16.8457 20.9982 17.5899C20.5258 18.0365 19.9944 18.8179 19.7188 19.469C19.2858 20.4923 19.2464 20.8458 19.2661 23.7481C19.2661 26.7621 19.2858 26.9668 19.8172 28.3063C20.5455 30.1296 20.8211 30.4831 21.6281 30.7249C22.0021 30.8366 22.2974 31.004 22.2974 31.0784C22.2974 31.1714 21.3132 31.4691 20.0928 31.7668C17.1009 32.511 15.2507 33.3854 14.6602 34.3529C13.5973 36.1389 13.0855 39.3204 13.4201 42.1111C13.8138 45.4599 14.4634 46.7065 16.2349 47.5065L17.3568 48.0088L16.9828 48.8274C16.0774 50.7809 15.664 53.9623 15.9987 56.4554C16.2742 58.5391 16.845 60.0089 17.7505 60.9019C18.5378 61.6833 15.9002 60.8275 44.7365 69.6462L53.8892 72.4555L57.9243 71.1904C62.6287 69.7206 67.274 68.0834 77.2141 64.3624C81.1705 62.874 86.1701 61.0694 88.3352 60.3252C90.5004 59.581 92.39 58.874 92.5278 58.7624C92.6656 58.6693 92.764 58.3717 92.7246 58.1112C92.6853 57.7577 92.4688 57.6089 91.6814 57.367C90.4807 56.9763 90.1067 56.3996 89.7918 54.26C89.3785 51.5251 89.8902 48.4367 90.8744 47.6925C91.1106 47.5251 92.2326 47.0786 93.3348 46.7251C95.5394 46.0367 95.8346 45.7762 95.6378 44.753C95.5197 44.2134 95.4213 44.1204 94.7717 44.0274C93.197 43.8041 92.7246 43.3018 92.3703 41.5157C92.0751 40.0831 92.1341 36.7529 92.4491 35.5994C92.8427 34.204 93.2167 33.7575 94.1615 33.5157C95.0473 33.2924 95.7165 32.7529 95.7165 32.2505C95.7165 31.5249 95.2441 31.3203 92.5672 30.818C91.1106 30.5575 89.7328 30.2784 89.5162 30.1854C89.1423 30.0366 89.1423 30.0366 89.5753 29.8133C89.8705 29.6645 90.0083 29.4226 90.0083 29.0877C90.0083 28.4365 89.6737 28.1203 88.9848 28.1203C88.6305 28.1203 88.3352 27.9714 88.1581 27.6923C86.9968 26.0179 86.9771 19.8411 88.1384 18.6318C88.3156 18.4458 88.7289 18.2225 89.0438 18.1667C89.7524 18.0179 90.2052 17.4039 90.0674 16.7527C89.969 16.2876 89.8705 16.2504 83.749 15.0411C75.6394 13.4411 68.4156 12.0457 65.6993 11.5806C59.9321 10.5759 55.4836 9.88755 54.8144 9.90616C54.4207 9.92476 52.2752 10.3341 50.051 10.8178ZM27.8087 20.1946C34.816 22.1109 43.8704 24.4737 48.5354 25.6086L52.8263 26.6505L67.4314 23.2272C84.2805 19.2644 85.8354 18.9109 85.9535 19.0225C85.9929 19.0597 85.9535 19.5062 85.8748 20.0272C85.5402 21.9063 85.678 25.3295 86.1701 27.9342L86.3078 28.5854L83.9655 29.1249C81.013 29.8133 69.7738 32.6412 64.7939 33.9622C62.6877 34.5203 59.125 35.4506 56.8614 36.0087L52.7476 37.0506L49.4802 36.1947C47.689 35.7296 43.2011 34.5203 39.5203 33.5157C35.8395 32.4924 31.0171 31.2087 28.7929 30.6319C22.0021 28.8831 22.7304 29.1621 22.1989 28.0644C20.9982 25.5714 21.1951 21.2737 22.6123 19.2458C22.7698 19.0225 23.006 18.8737 23.1437 18.9109C23.2618 18.9481 25.368 19.5248 27.8087 20.1946ZM90.6382 35.8785C90.3036 37.3855 90.4414 41.3111 90.8744 43.1901C91.0319 43.8599 91.0909 44.4553 91.0122 44.5297C90.9334 44.6227 82.7845 47.2274 72.8838 50.353L54.8734 56.0461L52.6689 55.4321L50.4643 54.8368V52.1763L50.6021 49.3511L45.8781 48.1948L41.2525 47.113L41.287 49.3511C41.287 50.7092 41.3312 52.1391 41.2525 52.1763C41.1147 52.2507 18.4788 46.0553 17.4946 45.6832C16.5695 45.3297 15.664 41.9064 15.8609 39.4692C16.1168 36.4366 16.6876 35.1901 17.8095 35.1901C18.3804 35.1901 25.8797 37.0692 38.5362 40.3994C41.5674 41.1994 46.4883 42.446 49.4605 43.1901L54.8734 44.5297L68.1597 40.7715C83.6506 36.3808 89.9493 34.6505 90.5201 34.6505C90.9138 34.6319 90.9138 34.6505 90.6382 35.8785ZM88.3549 49.0879C88.2959 49.3855 88.1778 50.446 88.1187 51.4693C88.0006 53.1437 88.0597 53.9809 88.5714 57.1438L88.6699 57.7949L87.0164 58.3159C84.0443 59.2833 79.5564 60.8833 72.5885 63.4694C66.1127 65.888 60.0305 68.0276 55.7592 69.4229L53.8892 70.0369L48.1811 68.3252C39.7172 65.7764 21.3525 59.9531 20.329 59.488C19.5614 59.1531 19.3842 58.9484 18.9905 58.0182C18.1835 56.0647 18.2032 53.1437 19.089 50.539C19.2464 50.0181 19.4433 49.553 19.522 49.4786C19.6007 49.4042 24.5216 50.8739 30.466 52.7344L41.2525 55.7853L41.3509 59.1531C41.3706 60.8089 41.4493 62.167 41.5281 62.167C41.5871 62.167 42.3941 61.6647 43.3192 61.0322C44.2444 60.4182 45.0908 59.8601 45.2089 59.8228C45.327 59.7856 46.5473 60.8833 47.8858 62.2973L50.3462 64.8461L50.4053 61.9252C50.425 60.3252 50.5234 59.0042 50.6021 59.0042C50.7005 59.0042 51.2517 59.1345 51.8422 59.3019C53.3578 59.7298 54.1845 59.581 58.8495 58.074C71.4075 53.9995 88.1581 48.6228 88.3156 48.6041C88.3943 48.5855 88.414 48.8088 88.3549 49.0879Z" fill="#0B345B"/>
<g filter="url(#filter0_d_81_42)">
<path d="M41.1945 52.0337V46.9982L50.5844 49.2362V49.5159V52.3134V59.0275L50.2815 64.9022L45.1322 59.8667L41.1945 62.3845V62.1047V52.0337Z" fill="#DB4916"/>
</g>
<path d="M7.97918 82.2H11.9632C13.3232 82.2 14.3152 82.52 14.9392 83.16C15.5632 83.784 15.8752 84.752 15.8752 86.064V86.736C15.8752 87.6 15.7312 88.304 15.4432 88.848C15.1712 89.392 14.7472 89.784 14.1712 90.024V90.072C15.4832 90.52 16.1392 91.688 16.1392 93.576V95.016C16.1392 96.312 15.7952 97.304 15.1072 97.992C14.4352 98.664 13.4432 99 12.1312 99H7.97918V82.2ZM11.6512 89.04C12.1792 89.04 12.5712 88.904 12.8272 88.632C13.0992 88.36 13.2352 87.904 13.2352 87.264V86.328C13.2352 85.72 13.1232 85.28 12.8992 85.008C12.6912 84.736 12.3552 84.6 11.8912 84.6H10.6192V89.04H11.6512ZM12.1312 96.6C12.5952 96.6 12.9392 96.48 13.1632 96.24C13.3872 95.984 13.4992 95.552 13.4992 94.944V93.48C13.4992 92.712 13.3632 92.184 13.0912 91.896C12.8352 91.592 12.4032 91.44 11.7952 91.44H10.6192V96.6H12.1312ZM19.8423 82.2H22.4823V99H19.8423V82.2ZM26.6195 82.2H29.2595V96.6H33.6035V99H26.6195V82.2ZM37.0295 82.2H39.6695V99H37.0295V82.2ZM43.8067 82.2H47.5747L49.2547 94.224H49.3027L50.9827 82.2H54.7507V99H52.2547V86.28H52.2067L50.2867 99H48.0787L46.1587 86.28H46.1107V99H43.8067V82.2Z" fill="#0B345B"/>
<path d="M58.3527 96.648L63.2487 84.6H58.5927V82.2H66.0807V84.552L61.1847 96.6H66.0807V99H58.3527V96.648ZM73.5521 99.24C72.2561 99.24 71.2641 98.872 70.5761 98.136C69.8881 97.4 69.5441 96.36 69.5441 95.016V86.184C69.5441 84.84 69.8881 83.8 70.5761 83.064C71.2641 82.328 72.2561 81.96 73.5521 81.96C74.8481 81.96 75.8401 82.328 76.5281 83.064C77.2161 83.8 77.5601 84.84 77.5601 86.184V95.016C77.5601 96.36 77.2161 97.4 76.5281 98.136C75.8401 98.872 74.8481 99.24 73.5521 99.24ZM73.5521 96.84C74.4641 96.84 74.9201 96.288 74.9201 95.184V86.016C74.9201 84.912 74.4641 84.36 73.5521 84.36C72.6401 84.36 72.1841 84.912 72.1841 86.016V95.184C72.1841 96.288 72.6401 96.84 73.5521 96.84ZM81.5054 82.2H84.8174L87.3854 92.256H87.4334V82.2H89.7854V99H87.0734L83.9054 86.736H83.8574V99H81.5054V82.2ZM93.9076 82.2H101.108V84.6H96.5476V89.04H100.172V91.44H96.5476V96.6H101.108V99H93.9076V82.2Z" fill="#DB4916"/>
<defs>
<filter id="filter0_d_81_42" x="37.1945" y="46.9982" width="17.3899" height="25.9041" filterUnits="userSpaceOnUse" color-interpolation-filters="sRGB">
<feFlood flood-opacity="0" result="BackgroundImageFix"/>
<feColorMatrix in="SourceAlpha" type="matrix" values="0 0 0 0 0 0 0 0 0 0 0 0 0 0 0 0 0 0 127 0" result="hardAlpha"/>
<feOffset dy="4"/>
<feGaussianBlur stdDeviation="2"/>
<feComposite in2="hardAlpha" operator="out"/>
<feColorMatrix type="matrix" values="0 0 0 0 0 0 0 0 0 0 0 0 0 0 0 0 0 0 0.25 0"/>
<feBlend mode="normal" in2="BackgroundImageFix" result="effect1_dropShadow_81_42"/>
<feBlend mode="normal" in="SourceGraphic" in2="effect1_dropShadow_81_42" result="shape"/>
</filter>
</defs>
</svg>
